<svg width="194" height="60" viewBox="0 0 194 60" fill="none" xmlns="http://www.w3.org/2000/svg">
<path d="M0 0H194V60H0V0Z" fill="#091242"/>
<mask id="mask0_1_4004" style="mask-type:alpha" maskUnits="userSpaceOnUse" x="0" y="0" width="194" height="60">
<path d="M0 0H194V60H0V0Z" fill="#FFB629"/>
</mask>
<g mask="url(#mask0_1_4004)">
<circle cx="185" cy="62" r="26" fill="#1F2A69"/>
</g>
<path d="M69.464 36C69.4427 34.0693 69.3787 32.4267 69.272 31.072C69.1653 29.7067 68.9947 28.368 68.76 27.056C68.344 28.1547 67.9867 29.1893 67.688 30.16C67.3893 31.1307 66.9893 32.56 66.488 34.448H64.904C64.4667 32.72 64.0933 31.3493 63.784 30.336C63.4853 29.312 63.1173 28.2187 62.68 27.056C62.456 28.368 62.2853 29.7067 62.168 31.072C62.0613 32.4373 61.9867 34.08 61.944 36H59.944C59.9867 33.7387 60.1147 31.7227 60.328 29.952C60.552 28.1707 60.8933 26.4533 61.352 24.8H63.608C64.1733 26.176 64.5947 27.2907 64.872 28.144C65.16 28.9867 65.432 29.936 65.688 30.992C65.9547 29.9573 66.232 29.024 66.52 28.192C66.8187 27.3493 67.256 26.2187 67.832 24.8H70.088C70.568 26.464 70.92 28.1867 71.144 29.968C71.368 31.7493 71.4907 33.76 71.512 36H69.464ZM76.9335 36.16C75.6535 36.16 74.6722 35.7653 73.9895 34.976C73.3068 34.1867 72.9655 33.056 72.9655 31.584C72.9655 30.112 73.3068 28.9867 73.9895 28.208C74.6722 27.4293 75.6535 27.04 76.9335 27.04C78.2135 27.04 79.1895 27.4293 79.8615 28.208C80.5442 28.9867 80.8855 30.112 80.8855 31.584C80.8855 33.0667 80.5442 34.2027 79.8615 34.992C79.1788 35.7707 78.2028 36.16 76.9335 36.16ZM76.9335 34.832C77.6268 34.832 78.1282 34.576 78.4375 34.064C78.7575 33.5413 78.9175 32.7147 78.9175 31.584C78.9175 30.464 78.7575 29.648 78.4375 29.136C78.1282 28.624 77.6268 28.368 76.9335 28.368C76.2402 28.368 75.7335 28.624 75.4135 29.136C75.1042 29.6373 74.9495 30.4533 74.9495 31.584C74.9495 32.7253 75.1042 33.552 75.4135 34.064C75.7335 34.576 76.2402 34.832 76.9335 34.832ZM86.6223 27.088C87.0916 27.088 87.4329 27.184 87.6463 27.376C87.8703 27.568 87.9823 27.8613 87.9823 28.256C87.9823 28.4053 87.9609 28.5547 87.9183 28.704C87.8756 28.8427 87.8169 28.9547 87.7423 29.04C87.6249 28.9653 87.4809 28.912 87.3103 28.88C87.1503 28.848 86.9316 28.832 86.6543 28.832C85.9609 28.832 85.4276 29.072 85.0543 29.552C84.6809 30.0213 84.4943 30.6987 84.4943 31.584V36H82.5583V27.2H84.4943V28.512C84.7183 28.064 85.0169 27.7173 85.3903 27.472C85.7636 27.216 86.1743 27.088 86.6223 27.088ZM96.8744 31.008C96.8744 31.1893 96.853 31.4933 96.8104 31.92H90.9224C90.9757 32.8373 91.189 33.5467 91.5624 34.048C91.9357 34.5493 92.4424 34.8 93.0824 34.8C93.5197 34.8 93.877 34.7147 94.1544 34.544C94.4424 34.3627 94.7677 34.016 95.1304 33.504C95.1944 33.408 95.3064 33.36 95.4664 33.36C95.765 33.36 96.1757 33.5467 96.6984 33.92C96.3997 34.6453 95.9357 35.2 95.3064 35.584C94.6877 35.968 93.9464 36.16 93.0824 36.16C91.7917 36.16 90.773 35.7547 90.0264 34.944C89.2904 34.1227 88.9224 33.0027 88.9224 31.584C88.9224 30.176 89.2957 29.0667 90.0424 28.256C90.789 27.4453 91.813 27.04 93.1144 27.04C94.309 27.04 95.2317 27.3867 95.8824 28.08C96.5437 28.7733 96.8744 29.7493 96.8744 31.008ZM94.9064 30.736C94.9064 29.1467 94.293 28.352 93.0664 28.352C92.4584 28.352 91.973 28.5547 91.6104 28.96C91.2584 29.3547 91.0397 29.9467 90.9544 30.736H94.9064ZM108.955 30.208C109.531 30.368 109.995 30.688 110.347 31.168C110.71 31.6373 110.891 32.176 110.891 32.784C110.891 33.808 110.539 34.6027 109.835 35.168C109.142 35.7227 108.15 36 106.859 36H102.795V24.8H106.699C107.841 24.8 108.737 25.0773 109.387 25.632C110.049 26.176 110.379 26.9173 110.379 27.856C110.379 28.4 110.251 28.8853 109.995 29.312C109.739 29.728 109.393 30.0267 108.955 30.208ZM108.331 27.856C108.331 26.7893 107.643 26.256 106.267 26.256H104.827V29.568H106.219C106.945 29.568 107.478 29.4293 107.819 29.152C108.161 28.8747 108.331 28.4427 108.331 27.856ZM106.475 34.544C107.073 34.544 107.542 34.4907 107.883 34.384C108.225 34.2667 108.47 34.0853 108.619 33.84C108.769 33.584 108.843 33.232 108.843 32.784C108.843 32.144 108.657 31.6907 108.283 31.424C107.921 31.1467 107.307 31.008 106.443 31.008H104.827V34.544H106.475ZM112.652 23.344H114.604V36H112.652V23.344ZM120.262 36.16C118.982 36.16 118 35.7653 117.318 34.976C116.635 34.1867 116.294 33.056 116.294 31.584C116.294 30.112 116.635 28.9867 117.318 28.208C118 27.4293 118.982 27.04 120.262 27.04C121.542 27.04 122.518 27.4293 123.19 28.208C123.872 28.9867 124.214 30.112 124.214 31.584C124.214 33.0667 123.872 34.2027 123.19 34.992C122.507 35.7707 121.531 36.16 120.262 36.16ZM120.262 34.832C120.955 34.832 121.456 34.576 121.766 34.064C122.086 33.5413 122.246 32.7147 122.246 31.584C122.246 30.464 122.086 29.648 121.766 29.136C121.456 28.624 120.955 28.368 120.262 28.368C119.568 28.368 119.062 28.624 118.742 29.136C118.432 29.6373 118.278 30.4533 118.278 31.584C118.278 32.7253 118.432 33.552 118.742 34.064C119.062 34.576 119.568 34.832 120.262 34.832ZM133.102 26.416C133.444 26.416 133.678 26.5333 133.806 26.768C133.934 27.0027 133.993 27.4027 133.982 27.968C133.225 27.968 132.686 28.0587 132.366 28.24C132.75 28.7413 132.942 29.3227 132.942 29.984C132.942 30.9867 132.622 31.7493 131.982 32.272C131.353 32.7947 130.425 33.056 129.198 33.056C128.622 33.056 128.217 33.0987 127.982 33.184C127.748 33.2587 127.63 33.3973 127.63 33.6C127.63 33.8027 127.769 33.9413 128.046 34.016C128.334 34.0907 128.878 34.128 129.678 34.128C130.926 34.128 131.886 34.3413 132.558 34.768C133.241 35.1947 133.582 35.7973 133.582 36.576C133.582 37.4187 133.204 38.08 132.446 38.56C131.7 39.04 130.67 39.28 129.358 39.28C128.057 39.28 127.06 39.072 126.366 38.656C125.673 38.2507 125.326 37.6693 125.326 36.912C125.326 36.432 125.492 36.0427 125.822 35.744C126.164 35.4453 126.66 35.2427 127.31 35.136V35.088C126.905 35.0027 126.59 34.8533 126.366 34.64C126.142 34.416 126.03 34.144 126.03 33.824C126.03 33.5467 126.142 33.3013 126.366 33.088C126.601 32.8747 126.91 32.72 127.294 32.624C126.793 32.3573 126.398 32.0107 126.11 31.584C125.822 31.1573 125.678 30.688 125.678 30.176C125.678 29.1627 126.004 28.3893 126.654 27.856C127.316 27.312 128.265 27.04 129.502 27.04C130.174 27.04 130.772 27.1627 131.294 27.408C131.55 27.1093 131.844 26.8693 132.174 26.688C132.505 26.5067 132.814 26.416 133.102 26.416ZM129.294 31.728C129.87 31.728 130.292 31.5947 130.558 31.328C130.825 31.0613 130.958 30.6347 130.958 30.048C130.958 29.4507 130.825 29.0187 130.558 28.752C130.292 28.4747 129.87 28.336 129.294 28.336C128.729 28.336 128.313 28.4747 128.046 28.752C127.78 29.0293 127.646 29.4613 127.646 30.048C127.646 30.6133 127.78 31.0347 128.046 31.312C128.324 31.5893 128.74 31.728 129.294 31.728ZM129.422 35.44C128.014 35.44 127.31 35.8507 127.31 36.672C127.31 37.1093 127.476 37.4347 127.806 37.648C128.148 37.8613 128.665 37.968 129.358 37.968C130.116 37.968 130.692 37.856 131.086 37.632C131.492 37.4187 131.694 37.0987 131.694 36.672C131.694 36.2453 131.508 35.936 131.134 35.744C130.772 35.5413 130.201 35.44 129.422 35.44Z" fill="white"/>
</svg>
