<svg width="194" height="60" viewBox="0 0 194 60" fill="none" xmlns="http://www.w3.org/2000/svg">
<path d="M0 0H194V60H0V0Z" fill="url(#paint0_linear_1_4547)"/>
<mask id="mask0_1_4547" style="mask-type:alpha" maskUnits="userSpaceOnUse" x="0" y="0" width="194" height="60">
<path d="M0 0H194V60H0V0Z" fill="url(#paint1_linear_1_4547)"/>
</mask>
<g mask="url(#mask0_1_4547)">
<ellipse cx="184.262" cy="70.7823" rx="34" ry="52.5448" transform="rotate(23.7158 184.262 70.7823)" fill="white"/>
</g>
<path d="M55.192 34.544C55.192 35.1093 55.1333 35.4933 55.016 35.696C54.8987 35.8987 54.68 36 54.36 36H48.168V24.8H55.064V26.256H50.184V29.52H54.296V30.96H50.184V34.544H55.192ZM61.9531 36C61.8998 35.3707 61.7025 34.7787 61.3611 34.224C61.0305 33.6587 60.5825 33.0773 60.0171 32.48C59.4518 33.0773 58.9985 33.6587 58.6571 34.224C58.3265 34.7787 58.1345 35.3707 58.0811 36H56.2091C56.2731 35.1467 56.5398 34.368 57.0091 33.664C57.4785 32.96 58.1238 32.2027 58.9451 31.392C58.1238 30.5813 57.4891 29.8667 57.0411 29.248C56.6038 28.6187 56.3531 27.936 56.2891 27.2H58.1611C58.1931 27.7333 58.3638 28.2453 58.6731 28.736C58.9931 29.216 59.4411 29.7547 60.0171 30.352C60.5931 29.7547 61.0358 29.216 61.3451 28.736C61.6651 28.2453 61.8411 27.7333 61.8731 27.2H63.7451C63.6811 27.936 63.4251 28.6187 62.9771 29.248C62.5398 29.8667 61.9105 30.5813 61.0891 31.392C61.9105 32.2027 62.5558 32.96 63.0251 33.664C63.4945 34.368 63.7611 35.1467 63.8251 36H61.9531ZM69.5981 27.04C70.7501 27.04 71.6248 27.4187 72.2221 28.176C72.8301 28.9227 73.1341 30.0213 73.1341 31.472C73.1341 32.4107 72.9635 33.232 72.6221 33.936C72.2915 34.64 71.8168 35.1893 71.1981 35.584C70.5795 35.968 69.8648 36.16 69.0541 36.16C68.4675 36.16 67.8435 36.048 67.1821 35.824V39.6H65.2461V30.432C65.2461 29.6107 65.2141 28.9867 65.1501 28.56C65.0968 28.1333 64.9901 27.808 64.8301 27.584C65.0861 27.4453 65.3475 27.3387 65.6141 27.264C65.8915 27.1787 66.1421 27.136 66.3661 27.136C66.5688 27.136 66.7288 27.2107 66.8461 27.36C66.9741 27.5093 67.0648 27.744 67.1181 28.064C67.7688 27.3813 68.5955 27.04 69.5981 27.04ZM68.8301 34.832C69.5768 34.832 70.1475 34.544 70.5421 33.968C70.9475 33.392 71.1501 32.56 71.1501 31.472C71.1501 30.4053 70.9955 29.616 70.6861 29.104C70.3768 28.592 69.8968 28.336 69.2461 28.336C68.8515 28.336 68.4675 28.4267 68.0941 28.608C67.7315 28.7893 67.4275 29.0293 67.1821 29.328V34.48C67.6835 34.7147 68.2328 34.832 68.8301 34.832ZM74.8086 23.344H76.7606V36H74.8086V23.344ZM82.4179 36.16C81.1379 36.16 80.1565 35.7653 79.4739 34.976C78.7912 34.1867 78.4499 33.056 78.4499 31.584C78.4499 30.112 78.7912 28.9867 79.4739 28.208C80.1565 27.4293 81.1379 27.04 82.4179 27.04C83.6979 27.04 84.6739 27.4293 85.3459 28.208C86.0285 28.9867 86.3699 30.112 86.3699 31.584C86.3699 33.0667 86.0285 34.2027 85.3459 34.992C84.6632 35.7707 83.6872 36.16 82.4179 36.16ZM82.4179 34.832C83.1112 34.832 83.6125 34.576 83.9219 34.064C84.2419 33.5413 84.4019 32.7147 84.4019 31.584C84.4019 30.464 84.2419 29.648 83.9219 29.136C83.6125 28.624 83.1112 28.368 82.4179 28.368C81.7245 28.368 81.2179 28.624 80.8979 29.136C80.5885 29.6373 80.4339 30.4533 80.4339 31.584C80.4339 32.7253 80.5885 33.552 80.8979 34.064C81.2179 34.576 81.7245 34.832 82.4179 34.832ZM92.1066 27.088C92.576 27.088 92.9173 27.184 93.1306 27.376C93.3546 27.568 93.4666 27.8613 93.4666 28.256C93.4666 28.4053 93.4453 28.5547 93.4026 28.704C93.36 28.8427 93.3013 28.9547 93.2266 29.04C93.1093 28.9653 92.9653 28.912 92.7946 28.88C92.6346 28.848 92.416 28.832 92.1386 28.832C91.4453 28.832 90.912 29.072 90.5386 29.552C90.1653 30.0213 89.9786 30.6987 89.9786 31.584V36H88.0426V27.2H89.9786V28.512C90.2026 28.064 90.5013 27.7173 90.8746 27.472C91.248 27.216 91.6586 27.088 92.1066 27.088ZM102.359 31.008C102.359 31.1893 102.337 31.4933 102.295 31.92H96.4068C96.4601 32.8373 96.6734 33.5467 97.0468 34.048C97.4201 34.5493 97.9268 34.8 98.5668 34.8C99.0041 34.8 99.3614 34.7147 99.6388 34.544C99.9268 34.3627 100.252 34.016 100.615 33.504C100.679 33.408 100.791 33.36 100.951 33.36C101.249 33.36 101.66 33.5467 102.183 33.92C101.884 34.6453 101.42 35.2 100.791 35.584C100.172 35.968 99.4308 36.16 98.5668 36.16C97.2761 36.16 96.2574 35.7547 95.5108 34.944C94.7748 34.1227 94.4068 33.0027 94.4068 31.584C94.4068 30.176 94.7801 29.0667 95.5268 28.256C96.2734 27.4453 97.2974 27.04 98.5988 27.04C99.7934 27.04 100.716 27.3867 101.367 28.08C102.028 28.7733 102.359 29.7493 102.359 31.008ZM100.391 30.736C100.391 29.1467 99.7774 28.352 98.5508 28.352C97.9428 28.352 97.4574 28.5547 97.0948 28.96C96.7428 29.3547 96.5241 29.9467 96.4388 30.736H100.391ZM117.48 36C117.458 34.0693 117.394 32.4267 117.288 31.072C117.181 29.7067 117.01 28.368 116.776 27.056C116.36 28.1547 116.002 29.1893 115.704 30.16C115.405 31.1307 115.005 32.56 114.504 34.448H112.92C112.482 32.72 112.109 31.3493 111.8 30.336C111.501 29.312 111.133 28.2187 110.696 27.056C110.472 28.368 110.301 29.7067 110.184 31.072C110.077 32.4373 110.002 34.08 109.96 36H107.96C108.002 33.7387 108.13 31.7227 108.344 29.952C108.568 28.1707 108.909 26.4533 109.368 24.8H111.624C112.189 26.176 112.61 27.2907 112.888 28.144C113.176 28.9867 113.448 29.936 113.704 30.992C113.97 29.9573 114.248 29.024 114.536 28.192C114.834 27.3493 115.272 26.2187 115.848 24.8H118.104C118.584 26.464 118.936 28.1867 119.16 29.968C119.384 31.7493 119.506 33.76 119.528 36H117.48ZM124.949 36.16C123.669 36.16 122.688 35.7653 122.005 34.976C121.322 34.1867 120.981 33.056 120.981 31.584C120.981 30.112 121.322 28.9867 122.005 28.208C122.688 27.4293 123.669 27.04 124.949 27.04C126.229 27.04 127.205 27.4293 127.877 28.208C128.56 28.9867 128.901 30.112 128.901 31.584C128.901 33.0667 128.56 34.2027 127.877 34.992C127.194 35.7707 126.218 36.16 124.949 36.16ZM124.949 34.832C125.642 34.832 126.144 34.576 126.453 34.064C126.773 33.5413 126.933 32.7147 126.933 31.584C126.933 30.464 126.773 29.648 126.453 29.136C126.144 28.624 125.642 28.368 124.949 28.368C124.256 28.368 123.749 28.624 123.429 29.136C123.12 29.6373 122.965 30.4533 122.965 31.584C122.965 32.7253 123.12 33.552 123.429 34.064C123.749 34.576 124.256 34.832 124.949 34.832ZM134.638 27.088C135.107 27.088 135.449 27.184 135.662 27.376C135.886 27.568 135.998 27.8613 135.998 28.256C135.998 28.4053 135.977 28.5547 135.934 28.704C135.891 28.8427 135.833 28.9547 135.758 29.04C135.641 28.9653 135.497 28.912 135.326 28.88C135.166 28.848 134.947 28.832 134.67 28.832C133.977 28.832 133.443 29.072 133.07 29.552C132.697 30.0213 132.51 30.6987 132.51 31.584V36H130.574V27.2H132.51V28.512C132.734 28.064 133.033 27.7173 133.406 27.472C133.779 27.216 134.19 27.088 134.638 27.088ZM144.89 31.008C144.89 31.1893 144.869 31.4933 144.826 31.92H138.938C138.991 32.8373 139.205 33.5467 139.578 34.048C139.951 34.5493 140.458 34.8 141.098 34.8C141.535 34.8 141.893 34.7147 142.17 34.544C142.458 34.3627 142.783 34.016 143.146 33.504C143.21 33.408 143.322 33.36 143.482 33.36C143.781 33.36 144.191 33.5467 144.714 33.92C144.415 34.6453 143.951 35.2 143.322 35.584C142.703 35.968 141.962 36.16 141.098 36.16C139.807 36.16 138.789 35.7547 138.042 34.944C137.306 34.1227 136.938 33.0027 136.938 31.584C136.938 30.176 137.311 29.0667 138.058 28.256C138.805 27.4453 139.829 27.04 141.13 27.04C142.325 27.04 143.247 27.3867 143.898 28.08C144.559 28.7733 144.89 29.7493 144.89 31.008ZM142.922 30.736C142.922 29.1467 142.309 28.352 141.082 28.352C140.474 28.352 139.989 28.5547 139.626 28.96C139.274 29.3547 139.055 29.9467 138.97 30.736H142.922Z" fill="#23212A"/>
<defs>
<linearGradient id="paint0_linear_1_4547" x1="-5.5" y1="13" x2="227.5" y2="66.5" gradientUnits="userSpaceOnUse">
<stop stop-color="#FFB629"/>
<stop offset="0.507189" stop-color="#FFDA56"/>
<stop offset="1" stop-color="#FFD7A6"/>
</linearGradient>
<linearGradient id="paint1_linear_1_4547" x1="-5.5" y1="13" x2="227.5" y2="66.5" gradientUnits="userSpaceOnUse">
<stop stop-color="#FFB629"/>
<stop offset="0.507189" stop-color="#FFDA56"/>
<stop offset="1" stop-color="#FFD7A6"/>
</linearGradient>
</defs>
</svg>
