<svg width="194" height="60" viewBox="0 0 194 60" fill="none" xmlns="http://www.w3.org/2000/svg">
<path d="M0 0H194V60H0V0Z" fill="url(#paint0_linear_1_4846)"/>
<mask id="mask0_1_4846" style="mask-type:alpha" maskUnits="userSpaceOnUse" x="0" y="0" width="194" height="60">
<path d="M0 0H194V60H0V0Z" fill="#FFB629"/>
</mask>
<g mask="url(#mask0_1_4846)">
<circle cx="177" cy="60" r="103" fill="white"/>
</g>
<path d="M57.424 30.208C58 30.368 58.464 30.688 58.816 31.168C59.1787 31.6373 59.36 32.176 59.36 32.784C59.36 33.808 59.008 34.6027 58.304 35.168C57.6107 35.7227 56.6187 36 55.328 36H51.264V24.8H55.168C56.3093 24.8 57.2053 25.0773 57.856 25.632C58.5173 26.176 58.848 26.9173 58.848 27.856C58.848 28.4 58.72 28.8853 58.464 29.312C58.208 29.728 57.8613 30.0267 57.424 30.208ZM56.8 27.856C56.8 26.7893 56.112 26.256 54.736 26.256H53.296V29.568H54.688C55.4133 29.568 55.9467 29.4293 56.288 29.152C56.6293 28.8747 56.8 28.4427 56.8 27.856ZM54.944 34.544C55.5413 34.544 56.0107 34.4907 56.352 34.384C56.6933 34.2667 56.9387 34.0853 57.088 33.84C57.2373 33.584 57.312 33.232 57.312 32.784C57.312 32.144 57.1253 31.6907 56.752 31.424C56.3893 31.1467 55.776 31.008 54.912 31.008H53.296V34.544H54.944ZM68.6571 33.984C68.6571 34.4213 68.6731 34.7787 68.7051 35.056C68.7478 35.3333 68.8118 35.5733 68.8971 35.776C68.4918 35.9787 68.0545 36.08 67.5851 36.08C67.3078 36.08 67.0998 36 66.9611 35.84C66.8331 35.68 66.7478 35.4027 66.7051 35.008C66.3958 35.3707 66.0011 35.6533 65.5211 35.856C65.0518 36.0587 64.5398 36.16 63.9851 36.16C63.0678 36.16 62.3691 35.9093 61.8891 35.408C61.4198 34.9067 61.1851 34.1707 61.1851 33.2V27.2H63.1211V33.088C63.1211 33.728 63.2278 34.1867 63.4411 34.464C63.6545 34.7307 64.0065 34.864 64.4971 34.864C64.9345 34.864 65.3398 34.752 65.7131 34.528C66.0865 34.304 66.4118 33.9787 66.6891 33.552V27.2H68.6571V33.984ZM75.7139 34.608C75.8099 34.6507 75.8899 34.7253 75.9539 34.832C76.0179 34.928 76.0499 35.0453 76.0499 35.184C76.0499 35.3973 75.9752 35.568 75.8259 35.696C75.6552 35.8347 75.3992 35.9467 75.0579 36.032C74.7272 36.1173 74.3592 36.16 73.9539 36.16C73.2285 36.16 72.6472 35.9627 72.2099 35.568C71.7832 35.1627 71.5699 34.624 71.5699 33.952V28.496H70.1139V27.2H71.5699V24.8H73.5059V27.2H75.3779V28.496H73.5059V33.744C73.5059 34.1493 73.5805 34.4427 73.7299 34.624C73.8792 34.7947 74.1192 34.88 74.4499 34.88C74.8552 34.88 75.2765 34.7893 75.7139 34.608ZM82.0264 34.608C82.1224 34.6507 82.2024 34.7253 82.2664 34.832C82.3304 34.928 82.3624 35.0453 82.3624 35.184C82.3624 35.3973 82.2877 35.568 82.1384 35.696C81.9677 35.8347 81.7117 35.9467 81.3704 36.032C81.0397 36.1173 80.6717 36.16 80.2664 36.16C79.541 36.16 78.9597 35.9627 78.5224 35.568C78.0957 35.1627 77.8824 34.624 77.8824 33.952V28.496H76.4264V27.2H77.8824V24.8H79.8184V27.2H81.6904V28.496H79.8184V33.744C79.8184 34.1493 79.893 34.4427 80.0424 34.624C80.1917 34.7947 80.4317 34.88 80.7624 34.88C81.1677 34.88 81.589 34.7893 82.0264 34.608ZM87.0429 36.16C85.7629 36.16 84.7815 35.7653 84.0989 34.976C83.4162 34.1867 83.0749 33.056 83.0749 31.584C83.0749 30.112 83.4162 28.9867 84.0989 28.208C84.7815 27.4293 85.7629 27.04 87.0429 27.04C88.3229 27.04 89.2989 27.4293 89.9709 28.208C90.6535 28.9867 90.9949 30.112 90.9949 31.584C90.9949 33.0667 90.6535 34.2027 89.9709 34.992C89.2882 35.7707 88.3122 36.16 87.0429 36.16ZM87.0429 34.832C87.7362 34.832 88.2375 34.576 88.5469 34.064C88.8669 33.5413 89.0269 32.7147 89.0269 31.584C89.0269 30.464 88.8669 29.648 88.5469 29.136C88.2375 28.624 87.7362 28.368 87.0429 28.368C86.3495 28.368 85.8429 28.624 85.5229 29.136C85.2135 29.6373 85.0589 30.4533 85.0589 31.584C85.0589 32.7253 85.2135 33.552 85.5229 34.064C85.8429 34.576 86.3495 34.832 87.0429 34.832ZM100.044 33.84C100.044 34.416 100.06 34.832 100.092 35.088C100.124 35.344 100.193 35.5733 100.3 35.776C99.7983 35.9787 99.2703 36.08 98.7156 36.08C98.4916 36.08 98.3316 35.9573 98.2356 35.712C98.1503 35.456 98.1076 35.008 98.1076 34.368V30.144C98.1076 29.5253 98.0063 29.088 97.8036 28.832C97.601 28.5653 97.2596 28.432 96.7796 28.432C96.0863 28.432 95.3503 28.7733 94.5716 29.456V36H92.6356V30.112C92.6356 28.7253 92.5716 27.84 92.4436 27.456C93.0623 27.2427 93.585 27.136 94.0116 27.136C94.2143 27.136 94.3583 27.2107 94.4436 27.36C94.529 27.5093 94.5716 27.744 94.5716 28.064V28.256C95.105 27.808 95.5796 27.4933 95.9956 27.312C96.4116 27.1307 96.849 27.04 97.3076 27.04C98.225 27.04 98.9076 27.2907 99.3556 27.792C99.8143 28.2827 100.044 29.0347 100.044 30.048V33.84ZM110.67 36.16C109.838 36.16 109.108 36.0587 108.478 35.856C107.849 35.6427 107.364 35.344 107.022 34.96C106.681 34.576 106.51 34.1333 106.51 33.632C106.51 33.3013 106.638 33.0453 106.894 32.864C107.161 32.6827 107.529 32.5867 107.998 32.576C108.094 33.2373 108.377 33.7493 108.846 34.112C109.316 34.4747 109.934 34.656 110.702 34.656C111.438 34.656 112.004 34.5067 112.398 34.208C112.804 33.9093 113.006 33.4827 113.006 32.928C113.006 32.48 112.809 32.1173 112.414 31.84C112.03 31.552 111.348 31.2747 110.366 31.008C109.065 30.6453 108.132 30.208 107.566 29.696C107.001 29.184 106.718 28.5173 106.718 27.696C106.718 26.7467 107.076 26 107.79 25.456C108.516 24.912 109.508 24.64 110.766 24.64C111.812 24.64 112.692 24.8853 113.406 25.376C114.132 25.8667 114.628 26.5493 114.894 27.424C114.756 27.5627 114.558 27.6853 114.302 27.792C114.046 27.8987 113.817 27.952 113.614 27.952C113.433 27.952 113.289 27.9147 113.182 27.84C113.076 27.7547 112.969 27.616 112.862 27.424C112.436 26.56 111.737 26.128 110.766 26.128C109.433 26.128 108.766 26.5973 108.766 27.536C108.766 27.8453 108.83 28.1013 108.958 28.304C109.086 28.496 109.31 28.672 109.63 28.832C109.95 28.992 110.42 29.168 111.038 29.36C112.137 29.7013 112.969 30.0213 113.534 30.32C114.1 30.608 114.5 30.928 114.734 31.28C114.969 31.6213 115.086 32.0587 115.086 32.592C115.086 33.296 114.905 33.92 114.542 34.464C114.18 34.9973 113.662 35.4133 112.99 35.712C112.329 36.0107 111.556 36.16 110.67 36.16ZM121.464 34.608C121.56 34.6507 121.64 34.7253 121.704 34.832C121.768 34.928 121.8 35.0453 121.8 35.184C121.8 35.3973 121.725 35.568 121.576 35.696C121.405 35.8347 121.149 35.9467 120.808 36.032C120.477 36.1173 120.109 36.16 119.704 36.16C118.979 36.16 118.397 35.9627 117.96 35.568C117.533 35.1627 117.32 34.624 117.32 33.952V28.496H115.864V27.2H117.32V24.8H119.256V27.2H121.128V28.496H119.256V33.744C119.256 34.1493 119.331 34.4427 119.48 34.624C119.629 34.7947 119.869 34.88 120.2 34.88C120.605 34.88 121.027 34.7893 121.464 34.608ZM130.256 27.2L126.848 36.672C126.518 37.6213 126.107 38.2987 125.616 38.704C125.126 39.1093 124.48 39.312 123.68 39.312C123.19 39.312 122.795 39.2213 122.496 39.04C122.198 38.8587 122.048 38.6187 122.048 38.32C122.048 38.1707 122.075 38.032 122.128 37.904C122.192 37.776 122.294 37.6373 122.432 37.488C122.55 37.5733 122.699 37.6373 122.88 37.68C123.072 37.7333 123.264 37.76 123.456 37.76C123.872 37.76 124.208 37.616 124.464 37.328C124.731 37.0507 124.971 36.56 125.184 35.856L122.048 27.2H124.048L126.176 33.488L128.256 27.2H130.256ZM131.434 23.344H133.386V36H131.434V23.344ZM143.187 31.008C143.187 31.1893 143.166 31.4933 143.123 31.92H137.235C137.288 32.8373 137.502 33.5467 137.875 34.048C138.248 34.5493 138.755 34.8 139.395 34.8C139.832 34.8 140.19 34.7147 140.467 34.544C140.755 34.3627 141.08 34.016 141.443 33.504C141.507 33.408 141.619 33.36 141.779 33.36C142.078 33.36 142.488 33.5467 143.011 33.92C142.712 34.6453 142.248 35.2 141.619 35.584C141 35.968 140.259 36.16 139.395 36.16C138.104 36.16 137.086 35.7547 136.339 34.944C135.603 34.1227 135.235 33.0027 135.235 31.584C135.235 30.176 135.608 29.0667 136.355 28.256C137.102 27.4453 138.126 27.04 139.427 27.04C140.622 27.04 141.544 27.3867 142.195 28.08C142.856 28.7733 143.187 29.7493 143.187 31.008ZM141.219 30.736C141.219 29.1467 140.606 28.352 139.379 28.352C138.771 28.352 138.286 28.5547 137.923 28.96C137.571 29.3547 137.352 29.9467 137.267 30.736H141.219Z" fill="#23212A"/>
<defs>
<linearGradient id="paint0_linear_1_4846" x1="-5.5" y1="13" x2="227.5" y2="66.5" gradientUnits="userSpaceOnUse">
<stop stop-color="#FFB629"/>
<stop offset="0.507189" stop-color="#FFDA56"/>
<stop offset="1" stop-color="#FFD7A6"/>
</linearGradient>
</defs>
</svg>
