<svg width="1200" height="68" viewBox="0 0 1200 68" fill="none" xmlns="http://www.w3.org/2000/svg">
<path d="M44.7209 44C44.5009 44 44.3209 43.93 44.1809 43.79C44.0409 43.65 43.9709 43.47 43.9709 43.25V27.17H38.5109C38.3109 27.17 38.1409 27.1 38.0009 26.96C37.8609 26.82 37.7909 26.65 37.7909 26.45V23.75C37.7909 23.53 37.8609 23.35 38.0009 23.21C38.1409 23.07 38.3109 23 38.5109 23H54.2309C54.4509 23 54.6309 23.07 54.7709 23.21C54.9109 23.35 54.9809 23.53 54.9809 23.75V26.45C54.9809 26.65 54.9109 26.82 54.7709 26.96C54.6309 27.1 54.4509 27.17 54.2309 27.17H48.8009V43.25C48.8009 43.47 48.7309 43.65 48.5909 43.79C48.4509 43.93 48.2709 44 48.0509 44H44.7209ZM56.4694 44C56.2694 44 56.0994 43.93 55.9594 43.79C55.8194 43.65 55.7494 43.47 55.7494 43.25V29.15C55.7494 28.95 55.8194 28.78 55.9594 28.64C56.0994 28.48 56.2694 28.4 56.4694 28.4H59.4094C59.6094 28.4 59.7794 28.48 59.9194 28.64C60.0794 28.78 60.1594 28.95 60.1594 29.15V30.35C60.6594 29.73 61.2694 29.25 61.9894 28.91C62.7294 28.57 63.5794 28.4 64.5394 28.4H65.8294C66.0294 28.4 66.1994 28.47 66.3394 28.61C66.4794 28.75 66.5494 28.93 66.5494 29.15V31.73C66.5494 31.95 66.4794 32.13 66.3394 32.27C66.1994 32.41 66.0294 32.48 65.8294 32.48H63.1894C62.3094 32.48 61.6194 32.73 61.1194 33.23C60.6194 33.71 60.3694 34.4 60.3694 35.3V43.25C60.3694 43.47 60.2994 43.65 60.1594 43.79C60.0194 43.93 59.8394 44 59.6194 44H56.4694ZM73.1128 44.3C72.0528 44.3 71.1028 44.1 70.2628 43.7C69.4228 43.28 68.7528 42.72 68.2528 42.02C67.7528 41.32 67.5028 40.54 67.5028 39.68C67.5028 38.26 68.0728 37.14 69.2128 36.32C70.3728 35.5 71.8928 34.94 73.7728 34.64L77.7028 34.07V33.53C77.7028 32.75 77.5228 32.15 77.1628 31.73C76.8028 31.31 76.1728 31.1 75.2728 31.1C74.6128 31.1 74.0828 31.23 73.6828 31.49C73.2828 31.75 72.9728 32.09 72.7528 32.51C72.5928 32.77 72.3628 32.9 72.0628 32.9H69.2128C68.9928 32.9 68.8228 32.84 68.7028 32.72C68.5828 32.58 68.5328 32.42 68.5528 32.24C68.5528 31.9 68.6828 31.5 68.9428 31.04C69.2028 30.58 69.6028 30.13 70.1428 29.69C70.6828 29.23 71.3728 28.85 72.2128 28.55C73.0528 28.25 74.0828 28.1 75.3028 28.1C76.5628 28.1 77.6428 28.25 78.5428 28.55C79.4428 28.85 80.1628 29.27 80.7028 29.81C81.2428 30.35 81.6428 30.98 81.9028 31.7C82.1628 32.4 82.2928 33.16 82.2928 33.98V43.25C82.2928 43.47 82.2228 43.65 82.0828 43.79C81.9428 43.93 81.7628 44 81.5428 44H78.6028C78.4028 44 78.2328 43.93 78.0928 43.79C77.9528 43.65 77.8828 43.47 77.8828 43.25V42.14C77.6228 42.52 77.2728 42.88 76.8328 43.22C76.3928 43.54 75.8628 43.8 75.2428 44C74.6428 44.2 73.9328 44.3 73.1128 44.3ZM74.3128 41.18C74.9728 41.18 75.5628 41.04 76.0828 40.76C76.6028 40.48 77.0128 40.05 77.3128 39.47C77.6128 38.89 77.7628 38.16 77.7628 37.28V36.77L74.9728 37.22C73.8928 37.4 73.1028 37.67 72.6028 38.03C72.1028 38.39 71.8528 38.83 71.8528 39.35C71.8528 39.73 71.9628 40.06 72.1828 40.34C72.4228 40.62 72.7328 40.83 73.1128 40.97C73.4928 41.11 73.8928 41.18 74.3128 41.18ZM86.6452 44C86.4452 44 86.2752 43.93 86.1352 43.79C85.9952 43.65 85.9252 43.47 85.9252 43.25V29.15C85.9252 28.93 85.9952 28.75 86.1352 28.61C86.2752 28.47 86.4452 28.4 86.6452 28.4H89.5852C89.8052 28.4 89.9852 28.47 90.1252 28.61C90.2652 28.75 90.3352 28.93 90.3352 29.15V30.32C90.8552 29.68 91.5252 29.15 92.3452 28.73C93.1652 28.31 94.1652 28.1 95.3452 28.1C96.5252 28.1 97.5552 28.37 98.4352 28.91C99.3352 29.43 100.035 30.2 100.535 31.22C101.055 32.22 101.315 33.44 101.315 34.88V43.25C101.315 43.47 101.235 43.65 101.075 43.79C100.935 43.93 100.765 44 100.565 44H97.3852C97.1652 44 96.9852 43.93 96.8452 43.79C96.7052 43.65 96.6352 43.47 96.6352 43.25V35.06C96.6352 34 96.3752 33.18 95.8552 32.6C95.3552 32 94.6152 31.7 93.6352 31.7C92.6952 31.7 91.9452 32 91.3852 32.6C90.8252 33.18 90.5452 34 90.5452 35.06V43.25C90.5452 43.47 90.4752 43.65 90.3352 43.79C90.1952 43.93 90.0252 44 89.8252 44H86.6452ZM111.06 44.3C109.82 44.3 108.75 44.16 107.85 43.88C106.97 43.58 106.25 43.22 105.69 42.8C105.15 42.38 104.74 41.96 104.46 41.54C104.2 41.1 104.06 40.73 104.04 40.43C104.02 40.21 104.09 40.03 104.25 39.89C104.41 39.75 104.57 39.68 104.73 39.68H107.64C107.7 39.68 107.76 39.69 107.82 39.71C107.88 39.73 107.94 39.78 108 39.86C108.26 40.04 108.53 40.25 108.81 40.49C109.09 40.71 109.41 40.9 109.77 41.06C110.15 41.22 110.62 41.3 111.18 41.3C111.84 41.3 112.4 41.17 112.86 40.91C113.32 40.63 113.55 40.24 113.55 39.74C113.55 39.38 113.44 39.08 113.22 38.84C113.02 38.6 112.63 38.38 112.05 38.18C111.47 37.98 110.61 37.76 109.47 37.52C108.39 37.28 107.47 36.96 106.71 36.56C105.95 36.16 105.38 35.66 105 35.06C104.62 34.44 104.43 33.7 104.43 32.84C104.43 32.06 104.67 31.31 105.15 30.59C105.65 29.87 106.38 29.28 107.34 28.82C108.3 28.34 109.5 28.1 110.94 28.1C112.04 28.1 113 28.24 113.82 28.52C114.66 28.78 115.36 29.12 115.92 29.54C116.48 29.94 116.9 30.36 117.18 30.8C117.48 31.22 117.64 31.59 117.66 31.91C117.68 32.11 117.62 32.28 117.48 32.42C117.34 32.56 117.18 32.63 117 32.63H114.33C114.23 32.63 114.14 32.62 114.06 32.6C113.98 32.56 113.91 32.51 113.85 32.45C113.61 32.29 113.36 32.11 113.1 31.91C112.86 31.69 112.57 31.5 112.23 31.34C111.89 31.18 111.45 31.1 110.91 31.1C110.25 31.1 109.74 31.25 109.38 31.55C109.04 31.83 108.87 32.19 108.87 32.63C108.87 32.91 108.96 33.17 109.14 33.41C109.32 33.65 109.69 33.87 110.25 34.07C110.81 34.27 111.66 34.48 112.8 34.7C114.16 34.94 115.24 35.3 116.04 35.78C116.84 36.26 117.41 36.82 117.75 37.46C118.11 38.08 118.29 38.75 118.29 39.47C118.29 40.41 118.01 41.25 117.45 41.99C116.89 42.71 116.07 43.28 114.99 43.7C113.93 44.1 112.62 44.3 111.06 44.3ZM121.889 44C121.689 44 121.519 43.93 121.379 43.79C121.239 43.65 121.169 43.47 121.169 43.25V29.15C121.169 28.93 121.239 28.75 121.379 28.61C121.519 28.47 121.689 28.4 121.889 28.4H124.889C125.109 28.4 125.289 28.47 125.429 28.61C125.569 28.75 125.639 28.93 125.639 29.15V43.25C125.639 43.47 125.569 43.65 125.429 43.79C125.289 43.93 125.109 44 124.889 44H121.889ZM121.799 26C121.599 26 121.429 25.93 121.289 25.79C121.149 25.65 121.079 25.47 121.079 25.25V22.85C121.079 22.63 121.149 22.45 121.289 22.31C121.429 22.15 121.599 22.07 121.799 22.07H124.949C125.169 22.07 125.349 22.15 125.489 22.31C125.649 22.45 125.729 22.63 125.729 22.85V25.25C125.729 25.47 125.649 25.65 125.489 25.79C125.349 25.93 125.169 26 124.949 26H121.799ZM136.902 44C135.662 44 134.602 43.8 133.722 43.4C132.842 42.98 132.172 42.34 131.712 41.48C131.272 40.62 131.052 39.54 131.052 38.24V31.94H128.712C128.492 31.94 128.312 31.87 128.172 31.73C128.032 31.59 127.962 31.41 127.962 31.19V29.15C127.962 28.93 128.032 28.75 128.172 28.61C128.312 28.47 128.492 28.4 128.712 28.4H131.052V23.45C131.052 23.23 131.122 23.05 131.262 22.91C131.422 22.77 131.602 22.7 131.802 22.7H134.742C134.962 22.7 135.142 22.77 135.282 22.91C135.422 23.05 135.492 23.23 135.492 23.45V28.4H139.242C139.442 28.4 139.612 28.47 139.752 28.61C139.892 28.75 139.962 28.93 139.962 29.15V31.19C139.962 31.41 139.892 31.59 139.752 31.73C139.612 31.87 139.442 31.94 139.242 31.94H135.492V37.88C135.492 38.64 135.622 39.24 135.882 39.68C136.162 40.1 136.642 40.31 137.322 40.31H139.512C139.712 40.31 139.882 40.38 140.022 40.52C140.162 40.66 140.232 40.83 140.232 41.03V43.25C140.232 43.47 140.162 43.65 140.022 43.79C139.882 43.93 139.712 44 139.512 44H136.902ZM143.929 44C143.709 44 143.529 43.93 143.389 43.79C143.249 43.65 143.179 43.47 143.179 43.25V23.75C143.179 23.53 143.249 23.35 143.389 23.21C143.529 23.07 143.709 23 143.929 23H157.309C157.529 23 157.709 23.07 157.849 23.21C157.989 23.35 158.059 23.53 158.059 23.75V26.3C158.059 26.52 157.989 26.7 157.849 26.84C157.709 26.98 157.529 27.05 157.309 27.05H147.859V32.12H156.709C156.929 32.12 157.109 32.19 157.249 32.33C157.389 32.47 157.459 32.65 157.459 32.87V35.42C157.459 35.62 157.389 35.79 157.249 35.93C157.109 36.07 156.929 36.14 156.709 36.14H147.859V43.25C147.859 43.47 147.789 43.65 147.649 43.79C147.509 43.93 147.329 44 147.109 44H143.929ZM161.88 44C161.66 44 161.48 43.93 161.34 43.79C161.2 43.65 161.13 43.47 161.13 43.25V23.45C161.13 23.23 161.2 23.05 161.34 22.91C161.48 22.77 161.66 22.7 161.88 22.7H164.88C165.08 22.7 165.25 22.77 165.39 22.91C165.53 23.05 165.6 23.23 165.6 23.45V43.25C165.6 43.47 165.53 43.65 165.39 43.79C165.25 43.93 165.08 44 164.88 44H161.88ZM176.532 44.3C174.872 44.3 173.482 44.03 172.362 43.49C171.242 42.93 170.382 42.14 169.782 41.12C169.202 40.1 168.882 38.91 168.822 37.55C168.802 37.15 168.792 36.7 168.792 36.2C168.792 35.68 168.802 35.23 168.822 34.85C168.882 33.47 169.222 32.28 169.842 31.28C170.462 30.26 171.332 29.48 172.452 28.94C173.572 28.38 174.932 28.1 176.532 28.1C178.112 28.1 179.462 28.38 180.582 28.94C181.702 29.48 182.572 30.26 183.192 31.28C183.812 32.28 184.152 33.47 184.212 34.85C184.252 35.23 184.272 35.68 184.272 36.2C184.272 36.7 184.252 37.15 184.212 37.55C184.152 38.91 183.822 40.1 183.222 41.12C182.642 42.14 181.792 42.93 180.672 43.49C179.552 44.03 178.172 44.3 176.532 44.3ZM176.532 41C177.512 41 178.252 40.7 178.752 40.1C179.252 39.48 179.522 38.58 179.562 37.4C179.582 37.1 179.592 36.7 179.592 36.2C179.592 35.7 179.582 35.3 179.562 35C179.522 33.84 179.252 32.95 178.752 32.33C178.252 31.71 177.512 31.4 176.532 31.4C175.552 31.4 174.802 31.71 174.282 32.33C173.782 32.95 173.512 33.84 173.472 35C173.452 35.3 173.442 35.7 173.442 36.2C173.442 36.7 173.452 37.1 173.472 37.4C173.512 38.58 173.782 39.48 174.282 40.1C174.802 40.7 175.552 41 176.532 41ZM191.26 44C190.98 44 190.76 43.93 190.6 43.79C190.46 43.65 190.35 43.47 190.27 43.25L185.98 29.36C185.94 29.26 185.92 29.16 185.92 29.06C185.92 28.88 185.98 28.73 186.1 28.61C186.24 28.47 186.4 28.4 186.58 28.4H189.22C189.48 28.4 189.68 28.47 189.82 28.61C189.96 28.75 190.05 28.88 190.09 29L192.82 38.27L195.73 29.06C195.77 28.92 195.86 28.78 196 28.64C196.16 28.48 196.38 28.4 196.66 28.4H198.37C198.65 28.4 198.86 28.48 199 28.64C199.16 28.78 199.26 28.92 199.3 29.06L202.21 38.27L204.94 29C204.96 28.88 205.04 28.75 205.18 28.61C205.34 28.47 205.54 28.4 205.78 28.4H208.42C208.6 28.4 208.75 28.47 208.87 28.61C209.01 28.73 209.08 28.88 209.08 29.06C209.08 29.16 209.07 29.26 209.05 29.36L204.73 43.25C204.67 43.47 204.56 43.65 204.4 43.79C204.26 43.93 204.05 44 203.77 44H201.46C201.18 44 200.96 43.93 200.8 43.79C200.64 43.65 200.52 43.47 200.44 43.25L197.53 34.37L194.56 43.25C194.5 43.47 194.39 43.65 194.23 43.79C194.07 43.93 193.85 44 193.57 44H191.26Z" fill="white"/>
<rect y="23.8911" width="9.78261" height="9.78261" transform="rotate(-30 0 23.8911)" fill="#FFB82B"/>
<rect x="4.13086" y="34" width="10" height="10" fill="#FFB82B"/>
<rect x="18.1309" y="21" width="10" height="10" fill="#FFB82B"/>
<rect x="18.1309" y="34" width="10" height="10" fill="#FFB82B"/>
<path d="M543.469 27.5C543.432 24.4853 543.198 21.7833 542.769 19.394C542.424 20.2527 542.102 21.1253 541.803 22.012C541.514 22.8893 541.075 24.3313 540.487 26.338H539.437C538.933 24.574 538.522 23.216 538.205 22.264C537.888 21.3027 537.542 20.36 537.169 19.436C536.758 21.788 536.52 24.476 536.455 27.5H535.069C535.153 23.776 535.536 20.5093 536.217 17.7H537.771C538.312 18.96 538.737 20.024 539.045 20.892C539.362 21.7507 539.666 22.7167 539.955 23.79C540.272 22.698 540.59 21.718 540.907 20.85C541.224 19.982 541.649 18.932 542.181 17.7H543.735C544.435 20.556 544.813 23.8227 544.869 27.5H543.469ZM549.698 27.64C548.597 27.64 547.762 27.2993 547.192 26.618C546.623 25.9367 546.338 24.9427 546.338 23.636C546.338 22.3293 546.623 21.34 547.192 20.668C547.762 19.996 548.597 19.66 549.698 19.66C550.8 19.66 551.635 19.996 552.204 20.668C552.783 21.34 553.072 22.3293 553.072 23.636C553.072 24.9427 552.783 25.9367 552.204 26.618C551.635 27.2993 550.8 27.64 549.698 27.64ZM549.698 26.674C550.398 26.674 550.907 26.4313 551.224 25.946C551.551 25.4607 551.714 24.6907 551.714 23.636C551.714 22.5907 551.551 21.83 551.224 21.354C550.907 20.8687 550.398 20.626 549.698 20.626C548.998 20.626 548.485 20.8687 548.158 21.354C547.841 21.83 547.682 22.5907 547.682 23.636C547.682 24.6907 547.846 25.4607 548.172 25.946C548.499 26.4313 549.008 26.674 549.698 26.674ZM560.964 25.666C560.964 26.1887 560.973 26.5573 560.992 26.772C561.02 26.9867 561.067 27.1827 561.132 27.36C560.796 27.5 560.446 27.57 560.082 27.57C559.905 27.57 559.783 27.4673 559.718 27.262C559.662 27.0473 559.634 26.6507 559.634 26.072V22.32C559.634 21.7227 559.527 21.298 559.312 21.046C559.107 20.7847 558.761 20.654 558.276 20.654C557.557 20.654 556.811 21.004 556.036 21.704V27.5H554.706V22.39C554.706 21.102 554.65 20.304 554.538 19.996C554.977 19.828 555.322 19.744 555.574 19.744C555.882 19.744 556.036 20.0147 556.036 20.556V20.696C556.484 20.332 556.904 20.0707 557.296 19.912C557.697 19.744 558.122 19.66 558.57 19.66C559.373 19.66 559.97 19.8793 560.362 20.318C560.763 20.7473 560.964 21.4053 560.964 22.292V25.666ZM566.58 22.74H571.62V23.664H566.58V22.74ZM580.626 27.64C579.945 27.64 579.329 27.5467 578.778 27.36C578.237 27.164 577.812 26.898 577.504 26.562C577.196 26.2167 577.042 25.8293 577.042 25.4C577.042 25.1667 577.131 24.98 577.308 24.84C577.495 24.7 577.747 24.6253 578.064 24.616C578.186 25.2413 578.466 25.722 578.904 26.058C579.352 26.3847 579.936 26.548 580.654 26.548C581.373 26.548 581.938 26.394 582.348 26.086C582.768 25.7687 582.978 25.344 582.978 24.812C582.978 24.3547 582.792 23.9907 582.418 23.72C582.045 23.44 581.392 23.174 580.458 22.922C579.674 22.7073 579.054 22.4787 578.596 22.236C578.139 21.984 577.803 21.6947 577.588 21.368C577.383 21.032 577.28 20.6307 577.28 20.164C577.28 19.3613 577.584 18.7267 578.19 18.26C578.797 17.7933 579.628 17.56 580.682 17.56C581.578 17.56 582.33 17.77 582.936 18.19C583.552 18.61 583.968 19.2027 584.182 19.968C584.089 20.0613 583.963 20.1407 583.804 20.206C583.646 20.262 583.492 20.29 583.342 20.29C583.202 20.29 583.081 20.2573 582.978 20.192C582.885 20.1267 582.806 20.0193 582.74 19.87C582.544 19.478 582.264 19.1747 581.9 18.96C581.546 18.7453 581.14 18.638 580.682 18.638C580.02 18.638 579.52 18.7593 579.184 19.002C578.848 19.2447 578.68 19.6087 578.68 20.094C578.68 20.3647 578.741 20.5933 578.862 20.78C578.993 20.9573 579.208 21.1253 579.506 21.284C579.814 21.4333 580.253 21.592 580.822 21.76C581.802 22.0493 582.544 22.32 583.048 22.572C583.552 22.824 583.902 23.1087 584.098 23.426C584.304 23.734 584.406 24.1307 584.406 24.616C584.406 25.2227 584.248 25.7547 583.93 26.212C583.622 26.6693 583.184 27.024 582.614 27.276C582.045 27.5187 581.382 27.64 580.626 27.64ZM591.863 25.26C591.863 25.8013 591.895 26.212 591.961 26.492C592.035 26.772 592.161 27.0147 592.339 27.22C592.208 27.3227 592.049 27.4113 591.863 27.486C591.676 27.5513 591.503 27.584 591.345 27.584C590.915 27.584 590.659 27.2013 590.575 26.436C590.295 26.8187 589.935 27.1173 589.497 27.332C589.067 27.5373 588.582 27.64 588.041 27.64C587.341 27.64 586.776 27.458 586.347 27.094C585.927 26.73 585.717 26.2447 585.717 25.638C585.717 23.9207 587.322 22.9827 590.533 22.824V22.278C590.533 21.7367 590.397 21.3353 590.127 21.074C589.856 20.8127 589.436 20.682 588.867 20.682C588.493 20.682 588.143 20.7567 587.817 20.906C587.49 21.0553 587.117 21.3167 586.697 21.69C586.631 21.7367 586.571 21.76 586.515 21.76C586.393 21.76 586.263 21.6993 586.123 21.578C585.983 21.4473 585.852 21.27 585.731 21.046C586.123 20.6073 586.608 20.2667 587.187 20.024C587.765 19.7813 588.367 19.66 588.993 19.66C589.889 19.66 590.589 19.8933 591.093 20.36C591.606 20.8173 591.863 21.4567 591.863 22.278V25.26ZM588.335 26.674C588.764 26.674 589.165 26.548 589.539 26.296C589.912 26.0347 590.243 25.666 590.533 25.19V23.692C588.218 23.7947 587.061 24.4153 587.061 25.554C587.061 25.918 587.168 26.198 587.383 26.394C587.607 26.5807 587.924 26.674 588.335 26.674ZM597.834 26.422C597.909 26.4593 597.97 26.5247 598.016 26.618C598.063 26.702 598.086 26.8 598.086 26.912C598.086 27.0987 598.016 27.234 597.876 27.318C597.736 27.4207 597.54 27.5 597.288 27.556C597.046 27.612 596.78 27.64 596.49 27.64C595.865 27.64 595.366 27.472 594.992 27.136C594.619 26.7907 594.432 26.3333 594.432 25.764V20.738H593.074V19.8H594.432V17.7H595.762V19.8H597.596V20.738H595.762V25.582C595.762 25.9553 595.837 26.2307 595.986 26.408C596.136 26.576 596.364 26.66 596.672 26.66C597.046 26.66 597.433 26.5807 597.834 26.422ZM605.767 17.672C606.933 17.672 607.792 18.0313 608.343 18.75C608.893 19.4687 609.169 20.4253 609.169 21.62C609.169 22.712 608.959 23.7153 608.539 24.63C608.128 25.5353 607.563 26.2587 606.845 26.8C606.126 27.332 605.333 27.598 604.465 27.598C604.147 27.598 603.919 27.5187 603.779 27.36C603.639 27.192 603.569 26.9493 603.569 26.632C604.633 26.632 605.515 26.3427 606.215 25.764C606.915 25.1853 607.4 24.3967 607.671 23.398C607.4 23.5847 607.087 23.7387 606.733 23.86C606.387 23.9813 606.028 24.042 605.655 24.042C604.712 24.042 603.947 23.7667 603.359 23.216C602.78 22.6653 602.491 21.8907 602.491 20.892C602.491 20.2667 602.635 19.7113 602.925 19.226C603.214 18.7313 603.606 18.3487 604.101 18.078C604.595 17.8073 605.151 17.672 605.767 17.672ZM605.795 23.034C606.597 23.034 607.288 22.7447 607.867 22.166C607.876 22.0447 607.881 21.8627 607.881 21.62C607.881 20.696 607.722 19.9773 607.405 19.464C607.087 18.9507 606.532 18.694 605.739 18.694C605.113 18.694 604.628 18.904 604.283 19.324C603.947 19.7347 603.779 20.276 603.779 20.948C603.779 21.648 603.951 22.1707 604.297 22.516C604.651 22.8613 605.151 23.034 605.795 23.034ZM612.055 27.528C611.532 27.528 611.271 27.2667 611.271 26.744V26.59C611.271 26.0673 611.532 25.806 612.055 25.806H612.195C612.717 25.806 612.979 26.0673 612.979 26.59V26.744C612.979 27.2667 612.717 27.528 612.195 27.528H612.055ZM618.629 27.668C617.397 27.668 616.464 27.2433 615.829 26.394C615.204 25.5353 614.891 24.3267 614.891 22.768C614.891 21.1067 615.204 19.8233 615.829 18.918C616.464 18.0127 617.397 17.56 618.629 17.56C619.861 17.56 620.79 18.0127 621.415 18.918C622.05 19.8233 622.367 21.1067 622.367 22.768C622.367 24.3267 622.05 25.5353 621.415 26.394C620.79 27.2433 619.861 27.668 618.629 27.668ZM618.629 26.618C619.45 26.618 620.057 26.282 620.449 25.61C620.841 24.938 621.037 23.9907 621.037 22.768C621.037 21.4333 620.841 20.4067 620.449 19.688C620.057 18.9693 619.45 18.61 618.629 18.61C617.024 18.61 616.221 19.996 616.221 22.768C616.221 25.3347 617.024 26.618 618.629 26.618ZM627.311 27.668C626.079 27.668 625.145 27.2433 624.511 26.394C623.885 25.5353 623.573 24.3267 623.573 22.768C623.573 21.1067 623.885 19.8233 624.511 18.918C625.145 18.0127 626.079 17.56 627.311 17.56C628.543 17.56 629.471 18.0127 630.097 18.918C630.731 19.8233 631.049 21.1067 631.049 22.768C631.049 24.3267 630.731 25.5353 630.097 26.394C629.471 27.2433 628.543 27.668 627.311 27.668ZM627.311 26.618C628.132 26.618 628.739 26.282 629.131 25.61C629.523 24.938 629.719 23.9907 629.719 22.768C629.719 21.4333 629.523 20.4067 629.131 19.688C628.739 18.9693 628.132 18.61 627.311 18.61C625.705 18.61 624.903 19.996 624.903 22.768C624.903 25.3347 625.705 26.618 627.311 26.618ZM636.102 22.74H641.142V23.664H636.102V22.74ZM651.128 26.548V27.5H646.508V26.548H648.216V19.268C647.982 19.4453 647.73 19.5993 647.46 19.73C647.189 19.8513 646.942 19.912 646.718 19.912C646.512 19.912 646.349 19.856 646.228 19.744C646.106 19.632 646.046 19.478 646.046 19.282C646.046 19.142 646.069 19.0253 646.116 18.932C646.508 18.8947 646.942 18.7687 647.418 18.554C647.894 18.3393 648.314 18.0547 648.678 17.7H649.49V26.548H651.128ZM657.455 22.46C658.146 22.7493 658.627 23.104 658.897 23.524C659.168 23.944 659.303 24.448 659.303 25.036C659.303 25.876 659.005 26.52 658.407 26.968C657.819 27.4067 657.007 27.626 655.971 27.626C654.945 27.626 654.133 27.4067 653.535 26.968C652.947 26.52 652.653 25.876 652.653 25.036C652.653 24.448 652.793 23.944 653.073 23.524C653.353 23.0947 653.834 22.74 654.515 22.46C653.974 22.18 653.568 21.8627 653.297 21.508C653.036 21.144 652.905 20.7007 652.905 20.178C652.905 19.4033 653.185 18.7873 653.745 18.33C654.305 17.8633 655.047 17.63 655.971 17.63C656.905 17.63 657.647 17.8633 658.197 18.33C658.748 18.7873 659.023 19.4033 659.023 20.178C659.023 20.71 658.893 21.158 658.631 21.522C658.379 21.886 657.987 22.1987 657.455 22.46ZM655.971 18.61C655.43 18.61 654.996 18.75 654.669 19.03C654.343 19.3007 654.179 19.6693 654.179 20.136C654.179 20.556 654.333 20.9247 654.641 21.242C654.959 21.55 655.402 21.802 655.971 21.998C656.643 21.7833 657.105 21.5313 657.357 21.242C657.619 20.9527 657.749 20.584 657.749 20.136C657.749 19.6693 657.586 19.3007 657.259 19.03C656.942 18.75 656.513 18.61 655.971 18.61ZM655.971 26.632C656.597 26.632 657.091 26.492 657.455 26.212C657.829 25.9227 658.015 25.5307 658.015 25.036C658.015 24.7187 657.955 24.4527 657.833 24.238C657.721 24.014 657.521 23.8087 657.231 23.622C656.942 23.4353 656.522 23.2393 655.971 23.034C655.253 23.3047 654.735 23.5893 654.417 23.888C654.1 24.1867 653.941 24.5693 653.941 25.036C653.941 25.5307 654.123 25.9227 654.487 26.212C654.851 26.492 655.346 26.632 655.971 26.632ZM662.012 27.528C661.489 27.528 661.228 27.2667 661.228 26.744V26.59C661.228 26.0673 661.489 25.806 662.012 25.806H662.152C662.674 25.806 662.936 26.0673 662.936 26.59V26.744C662.936 27.2667 662.674 27.528 662.152 27.528H662.012ZM668.586 27.668C667.354 27.668 666.421 27.2433 665.786 26.394C665.161 25.5353 664.848 24.3267 664.848 22.768C664.848 21.1067 665.161 19.8233 665.786 18.918C666.421 18.0127 667.354 17.56 668.586 17.56C669.818 17.56 670.747 18.0127 671.372 18.918C672.007 19.8233 672.324 21.1067 672.324 22.768C672.324 24.3267 672.007 25.5353 671.372 26.394C670.747 27.2433 669.818 27.668 668.586 27.668ZM668.586 26.618C669.407 26.618 670.014 26.282 670.406 25.61C670.798 24.938 670.994 23.9907 670.994 22.768C670.994 21.4333 670.798 20.4067 670.406 19.688C670.014 18.9693 669.407 18.61 668.586 18.61C666.981 18.61 666.178 19.996 666.178 22.768C666.178 25.3347 666.981 26.618 668.586 26.618ZM677.268 27.668C676.036 27.668 675.102 27.2433 674.468 26.394C673.842 25.5353 673.53 24.3267 673.53 22.768C673.53 21.1067 673.842 19.8233 674.468 18.918C675.102 18.0127 676.036 17.56 677.268 17.56C678.5 17.56 679.428 18.0127 680.054 18.918C680.688 19.8233 681.006 21.1067 681.006 22.768C681.006 24.3267 680.688 25.5353 680.054 26.394C679.428 27.2433 678.5 27.668 677.268 27.668ZM677.268 26.618C678.089 26.618 678.696 26.282 679.088 25.61C679.48 24.938 679.676 23.9907 679.676 22.768C679.676 21.4333 679.48 20.4067 679.088 19.688C678.696 18.9693 678.089 18.61 677.268 18.61C675.662 18.61 674.86 19.996 674.86 22.768C674.86 25.3347 675.662 26.618 677.268 26.618ZM538.681 46.64C538 46.64 537.384 46.5467 536.833 46.36C536.292 46.164 535.867 45.898 535.559 45.562C535.251 45.2167 535.097 44.8293 535.097 44.4C535.097 44.1667 535.186 43.98 535.363 43.84C535.55 43.7 535.802 43.6253 536.119 43.616C536.24 44.2413 536.52 44.722 536.959 45.058C537.407 45.3847 537.99 45.548 538.709 45.548C539.428 45.548 539.992 45.394 540.403 45.086C540.823 44.7687 541.033 44.344 541.033 43.812C541.033 43.3547 540.846 42.9907 540.473 42.72C540.1 42.44 539.446 42.174 538.513 41.922C537.729 41.7073 537.108 41.4787 536.651 41.236C536.194 40.984 535.858 40.6947 535.643 40.368C535.438 40.032 535.335 39.6307 535.335 39.164C535.335 38.3613 535.638 37.7267 536.245 37.26C536.852 36.7933 537.682 36.56 538.737 36.56C539.633 36.56 540.384 36.77 540.991 37.19C541.607 37.61 542.022 38.2027 542.237 38.968C542.144 39.0613 542.018 39.1407 541.859 39.206C541.7 39.262 541.546 39.29 541.397 39.29C541.257 39.29 541.136 39.2573 541.033 39.192C540.94 39.1267 540.86 39.0193 540.795 38.87C540.599 38.478 540.319 38.1747 539.955 37.96C539.6 37.7453 539.194 37.638 538.737 37.638C538.074 37.638 537.575 37.7593 537.239 38.002C536.903 38.2447 536.735 38.6087 536.735 39.094C536.735 39.3647 536.796 39.5933 536.917 39.78C537.048 39.9573 537.262 40.1253 537.561 40.284C537.869 40.4333 538.308 40.592 538.877 40.76C539.857 41.0493 540.599 41.32 541.103 41.572C541.607 41.824 541.957 42.1087 542.153 42.426C542.358 42.734 542.461 43.1307 542.461 43.616C542.461 44.2227 542.302 44.7547 541.985 45.212C541.677 45.6693 541.238 46.024 540.669 46.276C540.1 46.5187 539.437 46.64 538.681 46.64ZM550.533 44.82C550.533 45.4267 550.603 45.94 550.743 46.36C550.482 46.5 550.193 46.57 549.875 46.57C549.651 46.57 549.488 46.4953 549.385 46.346C549.292 46.1967 549.236 45.9213 549.217 45.52C548.947 45.8653 548.587 46.1407 548.139 46.346C547.701 46.542 547.22 46.64 546.697 46.64C545.895 46.64 545.288 46.4253 544.877 45.996C544.476 45.5573 544.275 44.9087 544.275 44.05V38.8H545.605V43.952C545.605 44.568 545.713 45.016 545.927 45.296C546.151 45.5667 546.511 45.702 547.005 45.702C547.444 45.702 547.855 45.59 548.237 45.366C548.62 45.1327 548.942 44.806 549.203 44.386V38.8H550.533V44.82ZM559.132 44.666C559.132 45.1887 559.141 45.5573 559.16 45.772C559.188 45.9867 559.235 46.1827 559.3 46.36C558.964 46.5 558.614 46.57 558.25 46.57C558.073 46.57 557.951 46.4673 557.886 46.262C557.83 46.0473 557.802 45.6507 557.802 45.072V41.32C557.802 40.7227 557.695 40.298 557.48 40.046C557.275 39.7847 556.929 39.654 556.444 39.654C555.725 39.654 554.979 40.004 554.204 40.704V46.5H552.874V41.39C552.874 40.102 552.818 39.304 552.706 38.996C553.145 38.828 553.49 38.744 553.742 38.744C554.05 38.744 554.204 39.0147 554.204 39.556V39.696C554.652 39.332 555.072 39.0707 555.464 38.912C555.865 38.744 556.29 38.66 556.738 38.66C557.541 38.66 558.138 38.8793 558.53 39.318C558.931 39.7473 559.132 40.4053 559.132 41.292V44.666ZM567.537 44.344C567.537 45.24 567.63 45.8933 567.817 46.304C567.481 46.4813 567.154 46.57 566.837 46.57C566.529 46.57 566.333 46.2527 566.249 45.618C565.969 45.9727 565.651 46.234 565.297 46.402C564.942 46.5607 564.517 46.64 564.023 46.64C563.024 46.64 562.24 46.29 561.671 45.59C561.101 44.89 560.817 43.9193 560.817 42.678C560.817 41.4273 561.129 40.4473 561.755 39.738C562.38 39.0193 563.243 38.66 564.345 38.66C564.662 38.66 564.993 38.716 565.339 38.828C565.693 38.9307 565.983 39.0613 566.207 39.22V35.426H567.537V44.344ZM564.191 45.674C564.62 45.674 564.998 45.5807 565.325 45.394C565.651 45.198 565.945 44.8993 566.207 44.498V40.298C566.011 40.0927 565.745 39.9247 565.409 39.794C565.082 39.6633 564.751 39.598 564.415 39.598C563.687 39.598 563.127 39.864 562.735 40.396C562.352 40.9187 562.161 41.6793 562.161 42.678C562.161 43.6673 562.333 44.414 562.679 44.918C563.024 45.422 563.528 45.674 564.191 45.674ZM575.47 44.26C575.47 44.8013 575.503 45.212 575.568 45.492C575.643 45.772 575.769 46.0147 575.946 46.22C575.815 46.3227 575.657 46.4113 575.47 46.486C575.283 46.5513 575.111 46.584 574.952 46.584C574.523 46.584 574.266 46.2013 574.182 45.436C573.902 45.8187 573.543 46.1173 573.104 46.332C572.675 46.5373 572.189 46.64 571.648 46.64C570.948 46.64 570.383 46.458 569.954 46.094C569.534 45.73 569.324 45.2447 569.324 44.638C569.324 42.9207 570.929 41.9827 574.14 41.824V41.278C574.14 40.7367 574.005 40.3353 573.734 40.074C573.463 39.8127 573.043 39.682 572.474 39.682C572.101 39.682 571.751 39.7567 571.424 39.906C571.097 40.0553 570.724 40.3167 570.304 40.69C570.239 40.7367 570.178 40.76 570.122 40.76C570.001 40.76 569.87 40.6993 569.73 40.578C569.59 40.4473 569.459 40.27 569.338 40.046C569.73 39.6073 570.215 39.2667 570.794 39.024C571.373 38.7813 571.975 38.66 572.6 38.66C573.496 38.66 574.196 38.8933 574.7 39.36C575.213 39.8173 575.47 40.4567 575.47 41.278V44.26ZM571.942 45.674C572.371 45.674 572.773 45.548 573.146 45.296C573.519 45.0347 573.851 44.666 574.14 44.19V42.692C571.825 42.7947 570.668 43.4153 570.668 44.554C570.668 44.918 570.775 45.198 570.99 45.394C571.214 45.5807 571.531 45.674 571.942 45.674ZM583.458 38.8L580.476 47.088C580.186 47.8813 579.836 48.4507 579.426 48.796C579.024 49.1413 578.497 49.314 577.844 49.314C577.452 49.314 577.139 49.244 576.906 49.104C576.672 48.9733 576.556 48.8007 576.556 48.586C576.556 48.3713 576.649 48.1753 576.836 47.998C576.938 48.0727 577.078 48.1287 577.256 48.166C577.433 48.2127 577.61 48.236 577.788 48.236C578.161 48.236 578.469 48.0867 578.712 47.788C578.964 47.4987 579.188 47.0273 579.384 46.374L576.64 38.8H578.026L580.056 44.666L582.072 38.8H583.458ZM592.218 46.64C590.828 46.64 589.754 46.206 588.998 45.338C588.252 44.4607 587.878 43.2147 587.878 41.6C587.878 39.9947 588.256 38.7533 589.012 37.876C589.768 36.9987 590.837 36.56 592.218 36.56C592.778 36.56 593.301 36.658 593.786 36.854C594.281 37.0407 594.696 37.3067 595.032 37.652C594.976 37.8667 594.883 38.0487 594.752 38.198C594.622 38.3473 594.486 38.422 594.346 38.422C594.216 38.422 594.094 38.38 593.982 38.296C593.702 38.0813 593.418 37.9273 593.128 37.834C592.848 37.7313 592.536 37.68 592.19 37.68C591.238 37.68 590.52 38.0113 590.034 38.674C589.549 39.3273 589.306 40.3027 589.306 41.6C589.306 42.8787 589.549 43.8493 590.034 44.512C590.529 45.1747 591.248 45.506 592.19 45.506C592.62 45.506 593.016 45.4407 593.38 45.31C593.744 45.17 594.09 44.9553 594.416 44.666C594.566 44.7033 594.692 44.7827 594.794 44.904C594.897 45.0253 594.948 45.1607 594.948 45.31C594.948 45.5433 594.822 45.7627 594.57 45.968C594.318 46.164 593.978 46.3273 593.548 46.458C593.128 46.5793 592.685 46.64 592.218 46.64ZM596.9 35.426H598.216V46.5H596.9V35.426ZM603.306 46.64C602.204 46.64 601.369 46.2993 600.8 45.618C600.23 44.9367 599.946 43.9427 599.946 42.636C599.946 41.3293 600.23 40.34 600.8 39.668C601.369 38.996 602.204 38.66 603.306 38.66C604.407 38.66 605.242 38.996 605.812 39.668C606.39 40.34 606.68 41.3293 606.68 42.636C606.68 43.9427 606.39 44.9367 605.812 45.618C605.242 46.2993 604.407 46.64 603.306 46.64ZM603.306 45.674C604.006 45.674 604.514 45.4313 604.832 44.946C605.158 44.4607 605.322 43.6907 605.322 42.636C605.322 41.5907 605.158 40.83 604.832 40.354C604.514 39.8687 604.006 39.626 603.306 39.626C602.606 39.626 602.092 39.8687 601.766 40.354C601.448 40.83 601.29 41.5907 601.29 42.636C601.29 43.6907 601.453 44.4607 601.78 44.946C602.106 45.4313 602.615 45.674 603.306 45.674ZM610.623 46.64C610.138 46.64 609.671 46.57 609.223 46.43C608.775 46.29 608.411 46.108 608.131 45.884C607.861 45.6507 607.725 45.3987 607.725 45.128C607.725 44.96 607.781 44.8153 607.893 44.694C608.015 44.5633 608.169 44.484 608.355 44.456C608.645 44.876 608.971 45.184 609.335 45.38C609.699 45.576 610.147 45.674 610.679 45.674C611.211 45.674 611.613 45.5573 611.883 45.324C612.154 45.0813 612.289 44.764 612.289 44.372C612.289 44.12 612.205 43.9147 612.037 43.756C611.879 43.588 611.673 43.4573 611.421 43.364C611.179 43.2613 610.847 43.154 610.427 43.042C609.877 42.8927 609.433 42.748 609.097 42.608C608.771 42.4587 608.486 42.244 608.243 41.964C608.01 41.6747 607.893 41.2967 607.893 40.83C607.893 40.3633 608.024 39.9667 608.285 39.64C608.547 39.3133 608.883 39.0707 609.293 38.912C609.704 38.744 610.133 38.66 610.581 38.66C611.207 38.66 611.762 38.786 612.247 39.038C612.742 39.2807 613.125 39.6213 613.395 40.06C613.283 40.2187 613.162 40.3447 613.031 40.438C612.901 40.5313 612.779 40.578 612.667 40.578C612.527 40.578 612.401 40.5127 612.289 40.382C611.841 39.8593 611.267 39.598 610.567 39.598C610.138 39.598 609.797 39.696 609.545 39.892C609.293 40.088 609.167 40.3867 609.167 40.788C609.167 41.04 609.247 41.2453 609.405 41.404C609.564 41.5533 609.765 41.6747 610.007 41.768C610.25 41.852 610.577 41.9453 610.987 42.048C611.547 42.1973 611.995 42.342 612.331 42.482C612.667 42.622 612.957 42.8413 613.199 43.14C613.442 43.4387 613.563 43.8353 613.563 44.33C613.563 45.0487 613.297 45.6133 612.765 46.024C612.243 46.4347 611.529 46.64 610.623 46.64ZM621.504 42.118C621.504 42.3047 621.49 42.5473 621.462 42.846H616.086C616.123 43.7327 616.329 44.4233 616.702 44.918C617.075 45.4033 617.589 45.646 618.242 45.646C618.681 45.646 619.045 45.5573 619.334 45.38C619.633 45.2027 619.922 44.8947 620.202 44.456C620.277 44.3533 620.379 44.302 620.51 44.302C620.725 44.302 621.005 44.428 621.35 44.68C621.107 45.296 620.715 45.7767 620.174 46.122C619.633 46.4673 618.989 46.64 618.242 46.64C617.523 46.64 616.898 46.4813 616.366 46.164C615.843 45.8373 615.442 45.3753 615.162 44.778C614.882 44.1713 614.742 43.4573 614.742 42.636C614.742 41.3947 615.055 40.424 615.68 39.724C616.315 39.0147 617.187 38.66 618.298 38.66C619.315 38.66 620.104 38.9633 620.664 39.57C621.224 40.1767 621.504 41.026 621.504 42.118ZM620.146 41.95C620.146 40.41 619.516 39.64 618.256 39.64C617.631 39.64 617.136 39.836 616.772 40.228C616.408 40.62 616.189 41.194 616.114 41.95H620.146ZM629.265 44.344C629.265 45.24 629.359 45.8933 629.545 46.304C629.209 46.4813 628.883 46.57 628.565 46.57C628.257 46.57 628.061 46.2527 627.977 45.618C627.697 45.9727 627.38 46.234 627.025 46.402C626.671 46.5607 626.246 46.64 625.751 46.64C624.753 46.64 623.969 46.29 623.399 45.59C622.83 44.89 622.545 43.9193 622.545 42.678C622.545 41.4273 622.858 40.4473 623.483 39.738C624.109 39.0193 624.972 38.66 626.073 38.66C626.391 38.66 626.722 38.716 627.067 38.828C627.422 38.9307 627.711 39.0613 627.935 39.22V35.426H629.265V44.344ZM625.919 45.674C626.349 45.674 626.727 45.5807 627.053 45.394C627.38 45.198 627.674 44.8993 627.935 44.498V40.298C627.739 40.0927 627.473 39.9247 627.137 39.794C626.811 39.6633 626.479 39.598 626.143 39.598C625.415 39.598 624.855 39.864 624.463 40.396C624.081 40.9187 623.889 41.6793 623.889 42.678C623.889 43.6673 624.062 44.414 624.407 44.918C624.753 45.422 625.257 45.674 625.919 45.674Z" fill="white"/>
<circle cx="485.631" cy="34" r="31" fill="#111C55" stroke="#273270"/>
<path d="M486.131 44.5C492.206 44.5 497.131 39.5751 497.131 33.5C497.131 27.4249 492.206 22.5 486.131 22.5C480.056 22.5 475.131 27.4249 475.131 33.5C475.131 39.5751 480.056 44.5 486.131 44.5Z" stroke="#F6B426"/>
<path d="M486.131 24.5V33.7058L491.131 37.5" stroke="#F6B426"/>
<path d="M833.243 26.45C833.243 26.87 833.192 27.15 833.089 27.29C832.996 27.43 832.804 27.5 832.515 27.5H827.237V17.7H833.187V18.75H828.637V21.942H832.515V23.006H828.637V26.45H833.243ZM843.261 19.66C843.952 19.66 844.507 19.8747 844.927 20.304C845.347 20.7333 845.557 21.3027 845.557 22.012V27.5H844.213V22.054C844.213 21.5407 844.11 21.172 843.905 20.948C843.709 20.7147 843.382 20.598 842.925 20.598C842.234 20.598 841.595 20.92 841.007 21.564C841.016 21.6293 841.021 21.7227 841.021 21.844V27.5H839.705V21.914C839.705 21.494 839.598 21.172 839.383 20.948C839.168 20.7147 838.865 20.598 838.473 20.598C838.128 20.598 837.792 20.6867 837.465 20.864C837.148 21.032 836.821 21.298 836.485 21.662V27.5H835.155V22.46C835.155 21.1067 835.099 20.29 834.987 20.01C835.146 19.9353 835.309 19.8747 835.477 19.828C835.654 19.772 835.808 19.744 835.939 19.744C836.126 19.744 836.261 19.8187 836.345 19.968C836.429 20.108 836.476 20.3367 836.485 20.654C836.83 20.3087 837.19 20.0567 837.563 19.898C837.936 19.7393 838.361 19.66 838.837 19.66C839.266 19.66 839.649 19.758 839.985 19.954C840.321 20.1407 840.578 20.402 840.755 20.738C841.1 20.3647 841.474 20.094 841.875 19.926C842.286 19.7487 842.748 19.66 843.261 19.66ZM853.538 25.26C853.538 25.8013 853.571 26.212 853.636 26.492C853.711 26.772 853.837 27.0147 854.014 27.22C853.884 27.3227 853.725 27.4113 853.538 27.486C853.352 27.5513 853.179 27.584 853.02 27.584C852.591 27.584 852.334 27.2013 852.25 26.436C851.97 26.8187 851.611 27.1173 851.172 27.332C850.743 27.5373 850.258 27.64 849.716 27.64C849.016 27.64 848.452 27.458 848.022 27.094C847.602 26.73 847.392 26.2447 847.392 25.638C847.392 23.9207 848.998 22.9827 852.208 22.824V22.278C852.208 21.7367 852.073 21.3353 851.802 21.074C851.532 20.8127 851.112 20.682 850.542 20.682C850.169 20.682 849.819 20.7567 849.492 20.906C849.166 21.0553 848.792 21.3167 848.372 21.69C848.307 21.7367 848.246 21.76 848.19 21.76C848.069 21.76 847.938 21.6993 847.798 21.578C847.658 21.4473 847.528 21.27 847.406 21.046C847.798 20.6073 848.284 20.2667 848.862 20.024C849.441 19.7813 850.043 19.66 850.668 19.66C851.564 19.66 852.264 19.8933 852.768 20.36C853.282 20.8173 853.538 21.4567 853.538 22.278V25.26ZM850.01 26.674C850.44 26.674 850.841 26.548 851.214 26.296C851.588 26.0347 851.919 25.666 852.208 25.19V23.692C849.894 23.7947 848.736 24.4153 848.736 25.554C848.736 25.918 848.844 26.198 849.058 26.394C849.282 26.5807 849.6 26.674 850.01 26.674ZM855.94 19.8H857.256V27.5H855.94V19.8ZM856.528 18.386C856.005 18.386 855.744 18.1247 855.744 17.602V17.448C855.744 16.9253 856.005 16.664 856.528 16.664H856.668C857.191 16.664 857.452 16.9253 857.452 17.448V17.602C857.452 18.1247 857.191 18.386 856.668 18.386H856.528ZM859.833 16.426H861.149V27.5H859.833V16.426ZM830.317 46.64C829.141 46.64 828.236 46.2947 827.601 45.604C826.966 44.904 826.649 43.9053 826.649 42.608C826.649 41.8053 826.794 41.1053 827.083 40.508C827.372 39.9107 827.788 39.4533 828.329 39.136C828.87 38.8187 829.51 38.66 830.247 38.66C831.124 38.66 831.843 38.884 832.403 39.332C832.972 39.7707 833.308 40.3633 833.411 41.11C833.262 41.194 833.103 41.264 832.935 41.32C832.767 41.3667 832.618 41.39 832.487 41.39C832.375 41.39 832.286 41.3573 832.221 41.292C832.165 41.2267 832.114 41.1053 832.067 40.928C831.946 40.4987 831.731 40.1767 831.423 39.962C831.115 39.738 830.723 39.626 830.247 39.626C829.556 39.626 829.006 39.8967 828.595 40.438C828.194 40.97 827.993 41.6933 827.993 42.608C827.993 43.5693 828.198 44.316 828.609 44.848C829.02 45.38 829.589 45.646 830.317 45.646C831.418 45.646 832.151 45.0767 832.515 43.938C832.767 43.938 832.958 44.008 833.089 44.148C833.229 44.2787 833.299 44.4653 833.299 44.708C833.299 45.044 833.159 45.3613 832.879 45.66C832.608 45.9587 832.244 46.1967 831.787 46.374C831.33 46.5513 830.84 46.64 830.317 46.64ZM837.843 46.64C836.742 46.64 835.906 46.2993 835.337 45.618C834.768 44.9367 834.483 43.9427 834.483 42.636C834.483 41.3293 834.768 40.34 835.337 39.668C835.906 38.996 836.742 38.66 837.843 38.66C838.944 38.66 839.78 38.996 840.349 39.668C840.928 40.34 841.217 41.3293 841.217 42.636C841.217 43.9427 840.928 44.9367 840.349 45.618C839.78 46.2993 838.944 46.64 837.843 46.64ZM837.843 45.674C838.543 45.674 839.052 45.4313 839.369 44.946C839.696 44.4607 839.859 43.6907 839.859 42.636C839.859 41.5907 839.696 40.83 839.369 40.354C839.052 39.8687 838.543 39.626 837.843 39.626C837.143 39.626 836.63 39.8687 836.303 40.354C835.986 40.83 835.827 41.5907 835.827 42.636C835.827 43.6907 835.99 44.4607 836.317 44.946C836.644 45.4313 837.152 45.674 837.843 45.674ZM849.108 44.666C849.108 45.1887 849.118 45.5573 849.136 45.772C849.164 45.9867 849.211 46.1827 849.276 46.36C848.94 46.5 848.59 46.57 848.226 46.57C848.049 46.57 847.928 46.4673 847.862 46.262C847.806 46.0473 847.778 45.6507 847.778 45.072V41.32C847.778 40.7227 847.671 40.298 847.456 40.046C847.251 39.7847 846.906 39.654 846.42 39.654C845.702 39.654 844.955 40.004 844.18 40.704V46.5H842.85V41.39C842.85 40.102 842.794 39.304 842.682 38.996C843.121 38.828 843.466 38.744 843.718 38.744C844.026 38.744 844.18 39.0147 844.18 39.556V39.696C844.628 39.332 845.048 39.0707 845.44 38.912C845.842 38.744 846.266 38.66 846.714 38.66C847.517 38.66 848.114 38.8793 848.506 39.318C848.908 39.7473 849.108 40.4053 849.108 41.292V44.666ZM855.203 45.422C855.278 45.4593 855.339 45.5247 855.385 45.618C855.432 45.702 855.455 45.8 855.455 45.912C855.455 46.0987 855.385 46.234 855.245 46.318C855.105 46.4207 854.909 46.5 854.657 46.556C854.415 46.612 854.149 46.64 853.859 46.64C853.234 46.64 852.735 46.472 852.361 46.136C851.988 45.7907 851.801 45.3333 851.801 44.764V39.738H850.443V38.8H851.801V36.7H853.131V38.8H854.965V39.738H853.131V44.582C853.131 44.9553 853.206 45.2307 853.355 45.408C853.505 45.576 853.733 45.66 854.041 45.66C854.415 45.66 854.802 45.5807 855.203 45.422ZM862.452 44.26C862.452 44.8013 862.485 45.212 862.55 45.492C862.625 45.772 862.751 46.0147 862.928 46.22C862.798 46.3227 862.639 46.4113 862.452 46.486C862.266 46.5513 862.093 46.584 861.934 46.584C861.505 46.584 861.248 46.2013 861.164 45.436C860.884 45.8187 860.525 46.1173 860.086 46.332C859.657 46.5373 859.172 46.64 858.63 46.64C857.93 46.64 857.366 46.458 856.936 46.094C856.516 45.73 856.306 45.2447 856.306 44.638C856.306 42.9207 857.912 41.9827 861.122 41.824V41.278C861.122 40.7367 860.987 40.3353 860.716 40.074C860.446 39.8127 860.026 39.682 859.456 39.682C859.083 39.682 858.733 39.7567 858.406 39.906C858.08 40.0553 857.706 40.3167 857.286 40.69C857.221 40.7367 857.16 40.76 857.104 40.76C856.983 40.76 856.852 40.6993 856.712 40.578C856.572 40.4473 856.442 40.27 856.32 40.046C856.712 39.6073 857.198 39.2667 857.776 39.024C858.355 38.7813 858.957 38.66 859.582 38.66C860.478 38.66 861.178 38.8933 861.682 39.36C862.196 39.8173 862.452 40.4567 862.452 41.278V44.26ZM858.924 45.674C859.354 45.674 859.755 45.548 860.128 45.296C860.502 45.0347 860.833 44.666 861.122 44.19V42.692C858.808 42.7947 857.65 43.4153 857.65 44.554C857.65 44.918 857.758 45.198 857.972 45.394C858.196 45.5807 858.514 45.674 858.924 45.674ZM867.682 46.64C866.506 46.64 865.601 46.2947 864.966 45.604C864.331 44.904 864.014 43.9053 864.014 42.608C864.014 41.8053 864.159 41.1053 864.448 40.508C864.737 39.9107 865.153 39.4533 865.694 39.136C866.235 38.8187 866.875 38.66 867.612 38.66C868.489 38.66 869.208 38.884 869.768 39.332C870.337 39.7707 870.673 40.3633 870.776 41.11C870.627 41.194 870.468 41.264 870.3 41.32C870.132 41.3667 869.983 41.39 869.852 41.39C869.74 41.39 869.651 41.3573 869.586 41.292C869.53 41.2267 869.479 41.1053 869.432 40.928C869.311 40.4987 869.096 40.1767 868.788 39.962C868.48 39.738 868.088 39.626 867.612 39.626C866.921 39.626 866.371 39.8967 865.96 40.438C865.559 40.97 865.358 41.6933 865.358 42.608C865.358 43.5693 865.563 44.316 865.974 44.848C866.385 45.38 866.954 45.646 867.682 45.646C868.783 45.646 869.516 45.0767 869.88 43.938C870.132 43.938 870.323 44.008 870.454 44.148C870.594 44.2787 870.664 44.4653 870.664 44.708C870.664 45.044 870.524 45.3613 870.244 45.66C869.973 45.9587 869.609 46.1967 869.152 46.374C868.695 46.5513 868.205 46.64 867.682 46.64ZM876.258 45.422C876.333 45.4593 876.393 45.5247 876.44 45.618C876.487 45.702 876.51 45.8 876.51 45.912C876.51 46.0987 876.44 46.234 876.3 46.318C876.16 46.4207 875.964 46.5 875.712 46.556C875.469 46.612 875.203 46.64 874.914 46.64C874.289 46.64 873.789 46.472 873.416 46.136C873.043 45.7907 872.856 45.3333 872.856 44.764V39.738H871.498V38.8H872.856V36.7H874.186V38.8H876.02V39.738H874.186V44.582C874.186 44.9553 874.261 45.2307 874.41 45.408C874.559 45.576 874.788 45.66 875.096 45.66C875.469 45.66 875.857 45.5807 876.258 45.422ZM884.529 42.664C884.52 42.7293 884.506 42.8227 884.487 42.944C884.468 43.056 884.459 43.1493 884.459 43.224C884.459 43.532 884.613 43.686 884.921 43.686C885.229 43.686 885.523 43.5647 885.803 43.322C886.083 43.07 886.312 42.7293 886.489 42.3C886.666 41.8613 886.755 41.3713 886.755 40.83C886.755 40.1113 886.587 39.4813 886.251 38.94C885.915 38.3893 885.444 37.9693 884.837 37.68C884.24 37.3813 883.549 37.232 882.765 37.232C881.916 37.232 881.164 37.4187 880.511 37.792C879.867 38.1653 879.363 38.6833 878.999 39.346C878.644 40.0087 878.467 40.76 878.467 41.6C878.467 42.5053 878.649 43.2893 879.013 43.952C879.377 44.6147 879.895 45.1233 880.567 45.478C881.239 45.8327 882.028 46.01 882.933 46.01C883.577 46.01 884.118 45.94 884.557 45.8C884.996 45.66 885.416 45.4547 885.817 45.184C886.041 45.3053 886.153 45.4687 886.153 45.674C886.153 45.8607 886.004 46.038 885.705 46.206C885.416 46.374 885.019 46.5093 884.515 46.612C884.02 46.724 883.493 46.78 882.933 46.78C881.86 46.78 880.922 46.5793 880.119 46.178C879.326 45.7673 878.71 45.1747 878.271 44.4C877.832 43.616 877.613 42.6733 877.613 41.572C877.613 40.6293 877.832 39.7707 878.271 38.996C878.719 38.212 879.335 37.596 880.119 37.148C880.903 36.6907 881.78 36.462 882.751 36.462C883.712 36.462 884.557 36.6487 885.285 37.022C886.022 37.3953 886.592 37.918 886.993 38.59C887.404 39.2527 887.609 40.0087 887.609 40.858C887.609 41.5767 887.478 42.216 887.217 42.776C886.956 43.3267 886.61 43.7513 886.181 44.05C885.761 44.3487 885.318 44.498 884.851 44.498C884.571 44.498 884.324 44.4233 884.109 44.274C883.904 44.1153 883.764 43.91 883.689 43.658C883.353 44.218 882.826 44.498 882.107 44.498C881.491 44.498 880.996 44.2973 880.623 43.896C880.259 43.4853 880.077 42.9113 880.077 42.174C880.077 41.5487 880.18 40.9933 880.385 40.508C880.6 40.0133 880.898 39.6307 881.281 39.36C881.664 39.0893 882.107 38.954 882.611 38.954C883.292 38.954 883.773 39.2153 884.053 39.738L884.151 39.178H885.089L884.529 42.664ZM882.219 43.686C882.695 43.686 883.068 43.448 883.339 42.972C883.619 42.496 883.759 41.936 883.759 41.292C883.759 40.7973 883.656 40.4193 883.451 40.158C883.255 39.8967 882.984 39.766 882.639 39.766C882.163 39.766 881.799 39.99 881.547 40.438C881.304 40.886 881.183 41.4553 881.183 42.146C881.183 42.6407 881.267 43.0233 881.435 43.294C881.612 43.5553 881.874 43.686 882.219 43.686ZM889.597 35.426H890.913V46.5H889.597V35.426ZM896.003 46.64C894.902 46.64 894.066 46.2993 893.497 45.618C892.928 44.9367 892.643 43.9427 892.643 42.636C892.643 41.3293 892.928 40.34 893.497 39.668C894.066 38.996 894.902 38.66 896.003 38.66C897.104 38.66 897.94 38.996 898.509 39.668C899.088 40.34 899.377 41.3293 899.377 42.636C899.377 43.9427 899.088 44.9367 898.509 45.618C897.94 46.2993 897.104 46.64 896.003 46.64ZM896.003 45.674C896.703 45.674 897.212 45.4313 897.529 44.946C897.856 44.4607 898.019 43.6907 898.019 42.636C898.019 41.5907 897.856 40.83 897.529 40.354C897.212 39.8687 896.703 39.626 896.003 39.626C895.303 39.626 894.79 39.8687 894.463 40.354C894.146 40.83 893.987 41.5907 893.987 42.636C893.987 43.6907 894.15 44.4607 894.477 44.946C894.804 45.4313 895.312 45.674 896.003 45.674ZM907.269 38.254C907.483 38.254 907.637 38.3193 907.731 38.45C907.833 38.5713 907.885 38.7767 907.885 39.066C907.885 39.206 907.88 39.3133 907.871 39.388C907.199 39.388 906.727 39.4767 906.457 39.654C906.811 40.0927 906.989 40.62 906.989 41.236C906.989 42.1227 906.718 42.7947 906.177 43.252C905.635 43.7 904.842 43.924 903.797 43.924C903.227 43.924 902.817 43.966 902.565 44.05C902.322 44.1247 902.201 44.2507 902.201 44.428C902.201 44.624 902.355 44.7687 902.663 44.862C902.98 44.946 903.498 44.988 904.217 44.988C905.29 44.988 906.116 45.17 906.695 45.534C907.283 45.898 907.577 46.4113 907.577 47.074C907.577 47.7927 907.259 48.3527 906.625 48.754C905.99 49.1553 905.094 49.356 903.937 49.356C902.826 49.356 901.972 49.1787 901.375 48.824C900.787 48.4787 900.493 47.9747 900.493 47.312C900.493 46.92 900.628 46.5887 900.899 46.318C901.179 46.038 901.575 45.842 902.089 45.73V45.688C901.781 45.6133 901.533 45.478 901.347 45.282C901.169 45.0767 901.081 44.8387 901.081 44.568C901.081 44.3347 901.174 44.1247 901.361 43.938C901.557 43.7513 901.818 43.616 902.145 43.532C901.725 43.308 901.393 43.014 901.151 42.65C900.917 42.2767 900.801 41.8613 900.801 41.404C900.801 40.508 901.076 39.8267 901.627 39.36C902.187 38.8933 902.999 38.66 904.063 38.66C904.679 38.66 905.225 38.786 905.701 39.038C905.925 38.7953 906.177 38.604 906.457 38.464C906.737 38.324 907.007 38.254 907.269 38.254ZM903.881 42.958C904.497 42.958 904.94 42.8273 905.211 42.566C905.481 42.3047 905.617 41.88 905.617 41.292C905.617 40.704 905.477 40.2747 905.197 40.004C904.926 39.7333 904.487 39.598 903.881 39.598C903.293 39.598 902.859 39.738 902.579 40.018C902.299 40.2887 902.159 40.7133 902.159 41.292C902.159 42.4027 902.733 42.958 903.881 42.958ZM903.993 45.996C902.574 45.996 901.865 46.3833 901.865 47.158C901.865 47.97 902.555 48.376 903.937 48.376C904.702 48.376 905.281 48.2733 905.673 48.068C906.065 47.8627 906.261 47.5593 906.261 47.158C906.261 46.7567 906.079 46.4627 905.715 46.276C905.36 46.0893 904.786 45.996 903.993 45.996ZM909.438 38.8H910.754V46.5H909.438V38.8ZM910.026 37.386C909.503 37.386 909.242 37.1247 909.242 36.602V36.448C909.242 35.9253 909.503 35.664 910.026 35.664H910.166C910.689 35.664 910.95 35.9253 910.95 36.448V36.602C910.95 37.1247 910.689 37.386 910.166 37.386H910.026ZM915.543 46.64C915.058 46.64 914.591 46.57 914.143 46.43C913.695 46.29 913.331 46.108 913.051 45.884C912.781 45.6507 912.645 45.3987 912.645 45.128C912.645 44.96 912.701 44.8153 912.813 44.694C912.935 44.5633 913.089 44.484 913.275 44.456C913.565 44.876 913.891 45.184 914.255 45.38C914.619 45.576 915.067 45.674 915.599 45.674C916.131 45.674 916.533 45.5573 916.803 45.324C917.074 45.0813 917.209 44.764 917.209 44.372C917.209 44.12 917.125 43.9147 916.957 43.756C916.799 43.588 916.593 43.4573 916.341 43.364C916.099 43.2613 915.767 43.154 915.347 43.042C914.797 42.8927 914.353 42.748 914.017 42.608C913.691 42.4587 913.406 42.244 913.163 41.964C912.93 41.6747 912.813 41.2967 912.813 40.83C912.813 40.3633 912.944 39.9667 913.205 39.64C913.467 39.3133 913.803 39.0707 914.213 38.912C914.624 38.744 915.053 38.66 915.501 38.66C916.127 38.66 916.682 38.786 917.167 39.038C917.662 39.2807 918.045 39.6213 918.315 40.06C918.203 40.2187 918.082 40.3447 917.951 40.438C917.821 40.5313 917.699 40.578 917.587 40.578C917.447 40.578 917.321 40.5127 917.209 40.382C916.761 39.8593 916.187 39.598 915.487 39.598C915.058 39.598 914.717 39.696 914.465 39.892C914.213 40.088 914.087 40.3867 914.087 40.788C914.087 41.04 914.167 41.2453 914.325 41.404C914.484 41.5533 914.685 41.6747 914.927 41.768C915.17 41.852 915.497 41.9453 915.907 42.048C916.467 42.1973 916.915 42.342 917.251 42.482C917.587 42.622 917.877 42.8413 918.119 43.14C918.362 43.4387 918.483 43.8353 918.483 44.33C918.483 45.0487 918.217 45.6133 917.685 46.024C917.163 46.4347 916.449 46.64 915.543 46.64ZM923.932 45.422C924.007 45.4593 924.067 45.5247 924.114 45.618C924.161 45.702 924.184 45.8 924.184 45.912C924.184 46.0987 924.114 46.234 923.974 46.318C923.834 46.4207 923.638 46.5 923.386 46.556C923.143 46.612 922.877 46.64 922.588 46.64C921.963 46.64 921.463 46.472 921.09 46.136C920.717 45.7907 920.53 45.3333 920.53 44.764V39.738H919.172V38.8H920.53V36.7H921.86V38.8H923.694V39.738H921.86V44.582C921.86 44.9553 921.935 45.2307 922.084 45.408C922.233 45.576 922.462 45.66 922.77 45.66C923.143 45.66 923.531 45.5807 923.932 45.422ZM925.735 38.8H927.051V46.5H925.735V38.8ZM926.323 37.386C925.8 37.386 925.539 37.1247 925.539 36.602V36.448C925.539 35.9253 925.8 35.664 926.323 35.664H926.463C926.986 35.664 927.247 35.9253 927.247 36.448V36.602C927.247 37.1247 926.986 37.386 926.463 37.386H926.323ZM932.596 46.64C931.42 46.64 930.515 46.2947 929.88 45.604C929.245 44.904 928.928 43.9053 928.928 42.608C928.928 41.8053 929.073 41.1053 929.362 40.508C929.651 39.9107 930.067 39.4533 930.608 39.136C931.149 38.8187 931.789 38.66 932.526 38.66C933.403 38.66 934.122 38.884 934.682 39.332C935.251 39.7707 935.587 40.3633 935.69 41.11C935.541 41.194 935.382 41.264 935.214 41.32C935.046 41.3667 934.897 41.39 934.766 41.39C934.654 41.39 934.565 41.3573 934.5 41.292C934.444 41.2267 934.393 41.1053 934.346 40.928C934.225 40.4987 934.01 40.1767 933.702 39.962C933.394 39.738 933.002 39.626 932.526 39.626C931.835 39.626 931.285 39.8967 930.874 40.438C930.473 40.97 930.272 41.6933 930.272 42.608C930.272 43.5693 930.477 44.316 930.888 44.848C931.299 45.38 931.868 45.646 932.596 45.646C933.697 45.646 934.43 45.0767 934.794 43.938C935.046 43.938 935.237 44.008 935.368 44.148C935.508 44.2787 935.578 44.4653 935.578 44.708C935.578 45.044 935.438 45.3613 935.158 45.66C934.887 45.9587 934.523 46.1967 934.066 46.374C933.609 46.5513 933.119 46.64 932.596 46.64ZM939.674 46.64C939.189 46.64 938.722 46.57 938.274 46.43C937.826 46.29 937.462 46.108 937.182 45.884C936.911 45.6507 936.776 45.3987 936.776 45.128C936.776 44.96 936.832 44.8153 936.944 44.694C937.065 44.5633 937.219 44.484 937.406 44.456C937.695 44.876 938.022 45.184 938.386 45.38C938.75 45.576 939.198 45.674 939.73 45.674C940.262 45.674 940.663 45.5573 940.934 45.324C941.205 45.0813 941.34 44.764 941.34 44.372C941.34 44.12 941.256 43.9147 941.088 43.756C940.929 43.588 940.724 43.4573 940.472 43.364C940.229 43.2613 939.898 43.154 939.478 43.042C938.927 42.8927 938.484 42.748 938.148 42.608C937.821 42.4587 937.537 42.244 937.294 41.964C937.061 41.6747 936.944 41.2967 936.944 40.83C936.944 40.3633 937.075 39.9667 937.336 39.64C937.597 39.3133 937.933 39.0707 938.344 38.912C938.755 38.744 939.184 38.66 939.632 38.66C940.257 38.66 940.813 38.786 941.298 39.038C941.793 39.2807 942.175 39.6213 942.446 40.06C942.334 40.2187 942.213 40.3447 942.082 40.438C941.951 40.5313 941.83 40.578 941.718 40.578C941.578 40.578 941.452 40.5127 941.34 40.382C940.892 39.8593 940.318 39.598 939.618 39.598C939.189 39.598 938.848 39.696 938.596 39.892C938.344 40.088 938.218 40.3867 938.218 40.788C938.218 41.04 938.297 41.2453 938.456 41.404C938.615 41.5533 938.815 41.6747 939.058 41.768C939.301 41.852 939.627 41.9453 940.038 42.048C940.598 42.1973 941.046 42.342 941.382 42.482C941.718 42.622 942.007 42.8413 942.25 43.14C942.493 43.4387 942.614 43.8353 942.614 44.33C942.614 45.0487 942.348 45.6133 941.816 46.024C941.293 46.4347 940.579 46.64 939.674 46.64ZM945.221 46.528C944.698 46.528 944.437 46.2667 944.437 45.744V45.59C944.437 45.0673 944.698 44.806 945.221 44.806H945.361C945.883 44.806 946.145 45.0673 946.145 45.59V45.744C946.145 46.2667 945.883 46.528 945.361 46.528H945.221ZM951.641 46.64C950.465 46.64 949.56 46.2947 948.925 45.604C948.29 44.904 947.973 43.9053 947.973 42.608C947.973 41.8053 948.118 41.1053 948.407 40.508C948.696 39.9107 949.112 39.4533 949.653 39.136C950.194 38.8187 950.834 38.66 951.571 38.66C952.448 38.66 953.167 38.884 953.727 39.332C954.296 39.7707 954.632 40.3633 954.735 41.11C954.586 41.194 954.427 41.264 954.259 41.32C954.091 41.3667 953.942 41.39 953.811 41.39C953.699 41.39 953.61 41.3573 953.545 41.292C953.489 41.2267 953.438 41.1053 953.391 40.928C953.27 40.4987 953.055 40.1767 952.747 39.962C952.439 39.738 952.047 39.626 951.571 39.626C950.88 39.626 950.33 39.8967 949.919 40.438C949.518 40.97 949.317 41.6933 949.317 42.608C949.317 43.5693 949.522 44.316 949.933 44.848C950.344 45.38 950.913 45.646 951.641 45.646C952.742 45.646 953.475 45.0767 953.839 43.938C954.091 43.938 954.282 44.008 954.413 44.148C954.553 44.2787 954.623 44.4653 954.623 44.708C954.623 45.044 954.483 45.3613 954.203 45.66C953.932 45.9587 953.568 46.1967 953.111 46.374C952.654 46.5513 952.164 46.64 951.641 46.64ZM959.167 46.64C958.066 46.64 957.23 46.2993 956.661 45.618C956.092 44.9367 955.807 43.9427 955.807 42.636C955.807 41.3293 956.092 40.34 956.661 39.668C957.23 38.996 958.066 38.66 959.167 38.66C960.268 38.66 961.104 38.996 961.673 39.668C962.252 40.34 962.541 41.3293 962.541 42.636C962.541 43.9427 962.252 44.9367 961.673 45.618C961.104 46.2993 960.268 46.64 959.167 46.64ZM959.167 45.674C959.867 45.674 960.376 45.4313 960.693 44.946C961.02 44.4607 961.183 43.6907 961.183 42.636C961.183 41.5907 961.02 40.83 960.693 40.354C960.376 39.8687 959.867 39.626 959.167 39.626C958.467 39.626 957.954 39.8687 957.627 40.354C957.31 40.83 957.151 41.5907 957.151 42.636C957.151 43.6907 957.314 44.4607 957.641 44.946C957.968 45.4313 958.476 45.674 959.167 45.674ZM972.351 38.66C973.041 38.66 973.597 38.8747 974.017 39.304C974.437 39.7333 974.647 40.3027 974.647 41.012V46.5H973.303V41.054C973.303 40.5407 973.2 40.172 972.995 39.948C972.799 39.7147 972.472 39.598 972.015 39.598C971.324 39.598 970.685 39.92 970.097 40.564C970.106 40.6293 970.111 40.7227 970.111 40.844V46.5H968.795V40.914C968.795 40.494 968.687 40.172 968.473 39.948C968.258 39.7147 967.955 39.598 967.563 39.598C967.217 39.598 966.881 39.6867 966.555 39.864C966.237 40.032 965.911 40.298 965.575 40.662V46.5H964.245V41.46C964.245 40.1067 964.189 39.29 964.077 39.01C964.235 38.9353 964.399 38.8747 964.567 38.828C964.744 38.772 964.898 38.744 965.029 38.744C965.215 38.744 965.351 38.8187 965.435 38.968C965.519 39.108 965.565 39.3367 965.575 39.654C965.92 39.3087 966.279 39.0567 966.653 38.898C967.026 38.7393 967.451 38.66 967.927 38.66C968.356 38.66 968.739 38.758 969.075 38.954C969.411 39.1407 969.667 39.402 969.845 39.738C970.19 39.3647 970.563 39.094 970.965 38.926C971.375 38.7487 971.837 38.66 972.351 38.66Z" fill="white"/>
<circle cx="780.631" cy="34" r="31" fill="#111C55" stroke="#273270"/>
<path d="M790.127 25.5H772.135C771.58 25.5 771.131 25.8755 771.131 26.3387V39.6613C771.131 40.1245 771.58 40.5 772.135 40.5H790.127C790.681 40.5 791.131 40.1245 791.131 39.6613V26.3387C791.131 25.8755 790.681 25.5 790.127 25.5Z" stroke="#F6B426"/>
<path d="M771.131 25.5L781.556 32.5L791.131 25.7294" stroke="#F6B426"/>
<path d="M1097.2 25.14C1095.81 25.14 1094.73 24.706 1093.98 23.838C1093.23 22.9607 1092.86 21.7147 1092.86 20.1C1092.86 18.4947 1093.24 17.2533 1093.99 16.376C1094.75 15.4987 1095.82 15.06 1097.2 15.06C1097.76 15.06 1098.28 15.158 1098.77 15.354C1099.26 15.5407 1099.68 15.8067 1100.01 16.152C1099.96 16.3667 1099.86 16.5487 1099.73 16.698C1099.6 16.8473 1099.47 16.922 1099.33 16.922C1099.2 16.922 1099.07 16.88 1098.96 16.796C1098.68 16.5813 1098.4 16.4273 1098.11 16.334C1097.83 16.2313 1097.52 16.18 1097.17 16.18C1096.22 16.18 1095.5 16.5113 1095.01 17.174C1094.53 17.8273 1094.29 18.8027 1094.29 20.1C1094.29 21.3787 1094.53 22.3493 1095.01 23.012C1095.51 23.6747 1096.23 24.006 1097.17 24.006C1097.6 24.006 1098 23.9407 1098.36 23.81C1098.72 23.67 1099.07 23.4553 1099.4 23.166C1099.55 23.2033 1099.67 23.2827 1099.77 23.404C1099.88 23.5253 1099.93 23.6607 1099.93 23.81C1099.93 24.0433 1099.8 24.2627 1099.55 24.468C1099.3 24.664 1098.96 24.8273 1098.53 24.958C1098.11 25.0793 1097.67 25.14 1097.2 25.14ZM1107.47 22.76C1107.47 23.3013 1107.5 23.712 1107.56 23.992C1107.64 24.272 1107.76 24.5147 1107.94 24.72C1107.81 24.8227 1107.65 24.9113 1107.47 24.986C1107.28 25.0513 1107.11 25.084 1106.95 25.084C1106.52 25.084 1106.26 24.7013 1106.18 23.936C1105.9 24.3187 1105.54 24.6173 1105.1 24.832C1104.67 25.0373 1104.19 25.14 1103.64 25.14C1102.94 25.14 1102.38 24.958 1101.95 24.594C1101.53 24.23 1101.32 23.7447 1101.32 23.138C1101.32 21.4207 1102.93 20.4827 1106.14 20.324V19.778C1106.14 19.2367 1106 18.8353 1105.73 18.574C1105.46 18.3127 1105.04 18.182 1104.47 18.182C1104.1 18.182 1103.75 18.2567 1103.42 18.406C1103.09 18.5553 1102.72 18.8167 1102.3 19.19C1102.23 19.2367 1102.17 19.26 1102.12 19.26C1102 19.26 1101.87 19.1993 1101.73 19.078C1101.59 18.9473 1101.46 18.77 1101.33 18.546C1101.73 18.1073 1102.21 17.7667 1102.79 17.524C1103.37 17.2813 1103.97 17.16 1104.6 17.16C1105.49 17.16 1106.19 17.3933 1106.7 17.86C1107.21 18.3173 1107.47 18.9567 1107.47 19.778V22.76ZM1103.94 24.174C1104.37 24.174 1104.77 24.048 1105.14 23.796C1105.52 23.5347 1105.85 23.166 1106.14 22.69V21.192C1103.82 21.2947 1102.66 21.9153 1102.66 23.054C1102.66 23.418 1102.77 23.698 1102.99 23.894C1103.21 24.0807 1103.53 24.174 1103.94 24.174ZM1109.73 13.926H1111.04V25H1109.73V13.926ZM1113.47 13.926H1114.79V25H1113.47V13.926ZM1124.6 25.14C1123.32 25.14 1122.36 24.8367 1121.73 24.23C1121.09 23.6233 1120.77 22.7087 1120.77 21.486V15.2H1122.16V21.682C1122.16 22.4847 1122.36 23.082 1122.76 23.474C1123.16 23.8567 1123.77 24.048 1124.6 24.048C1125.43 24.048 1126.04 23.8567 1126.43 23.474C1126.82 23.0913 1127.02 22.494 1127.02 21.682V15.2H1128.4V21.486C1128.4 22.7367 1128.09 23.6607 1127.47 24.258C1126.85 24.846 1125.89 25.14 1124.6 25.14ZM1132.97 25.14C1132.48 25.14 1132.02 25.07 1131.57 24.93C1131.12 24.79 1130.76 24.608 1130.48 24.384C1130.2 24.1507 1130.07 23.8987 1130.07 23.628C1130.07 23.46 1130.13 23.3153 1130.24 23.194C1130.36 23.0633 1130.51 22.984 1130.7 22.956C1130.99 23.376 1131.32 23.684 1131.68 23.88C1132.04 24.076 1132.49 24.174 1133.02 24.174C1133.56 24.174 1133.96 24.0573 1134.23 23.824C1134.5 23.5813 1134.63 23.264 1134.63 22.872C1134.63 22.62 1134.55 22.4147 1134.38 22.256C1134.22 22.088 1134.02 21.9573 1133.77 21.864C1133.52 21.7613 1133.19 21.654 1132.77 21.542C1132.22 21.3927 1131.78 21.248 1131.44 21.108C1131.11 20.9587 1130.83 20.744 1130.59 20.464C1130.35 20.1747 1130.24 19.7967 1130.24 19.33C1130.24 18.8633 1130.37 18.4667 1130.63 18.14C1130.89 17.8133 1131.23 17.5707 1131.64 17.412C1132.05 17.244 1132.48 17.16 1132.93 17.16C1133.55 17.16 1134.11 17.286 1134.59 17.538C1135.09 17.7807 1135.47 18.1213 1135.74 18.56C1135.63 18.7187 1135.51 18.8447 1135.38 18.938C1135.24 19.0313 1135.12 19.078 1135.01 19.078C1134.87 19.078 1134.75 19.0127 1134.63 18.882C1134.19 18.3593 1133.61 18.098 1132.91 18.098C1132.48 18.098 1132.14 18.196 1131.89 18.392C1131.64 18.588 1131.51 18.8867 1131.51 19.288C1131.51 19.54 1131.59 19.7453 1131.75 19.904C1131.91 20.0533 1132.11 20.1747 1132.35 20.268C1132.59 20.352 1132.92 20.4453 1133.33 20.548C1133.89 20.6973 1134.34 20.842 1134.68 20.982C1135.01 21.122 1135.3 21.3413 1135.54 21.64C1135.79 21.9387 1135.91 22.3353 1135.91 22.83C1135.91 23.5487 1135.64 24.1133 1135.11 24.524C1134.59 24.9347 1133.87 25.14 1132.97 25.14ZM1095.41 45.386C1094.68 44.4247 1094.13 43.356 1093.75 42.18C1093.39 41.004 1093.21 39.8373 1093.21 38.68C1093.21 37.532 1093.39 36.3747 1093.75 35.208C1094.13 34.032 1094.68 32.9633 1095.41 32.002H1096.58C1095.9 33.0193 1095.39 34.0927 1095.06 35.222C1094.73 36.3513 1094.57 37.504 1094.57 38.68C1094.57 41.1533 1095.24 43.3887 1096.58 45.386H1095.41ZM1101.93 44.168C1100.69 44.168 1099.76 43.7433 1099.13 42.894C1098.5 42.0353 1098.19 40.8267 1098.19 39.268C1098.19 37.6067 1098.5 36.3233 1099.13 35.418C1099.76 34.5127 1100.69 34.06 1101.93 34.06C1103.16 34.06 1104.09 34.5127 1104.71 35.418C1105.35 36.3233 1105.66 37.6067 1105.66 39.268C1105.66 40.8267 1105.35 42.0353 1104.71 42.894C1104.09 43.7433 1103.16 44.168 1101.93 44.168ZM1101.93 43.118C1102.75 43.118 1103.35 42.782 1103.75 42.11C1104.14 41.438 1104.33 40.4907 1104.33 39.268C1104.33 37.9333 1104.14 36.9067 1103.75 36.188C1103.35 35.4693 1102.75 35.11 1101.93 35.11C1100.32 35.11 1099.52 36.496 1099.52 39.268C1099.52 41.8347 1100.32 43.118 1101.93 43.118ZM1110.61 44.168C1109.38 44.168 1108.44 43.7433 1107.81 42.894C1107.18 42.0353 1106.87 40.8267 1106.87 39.268C1106.87 37.6067 1107.18 36.3233 1107.81 35.418C1108.44 34.5127 1109.38 34.06 1110.61 34.06C1111.84 34.06 1112.77 34.5127 1113.39 35.418C1114.03 36.3233 1114.35 37.6067 1114.35 39.268C1114.35 40.8267 1114.03 42.0353 1113.39 42.894C1112.77 43.7433 1111.84 44.168 1110.61 44.168ZM1110.61 43.118C1111.43 43.118 1112.04 42.782 1112.43 42.11C1112.82 41.438 1113.02 40.4907 1113.02 39.268C1113.02 37.9333 1112.82 36.9067 1112.43 36.188C1112.04 35.4693 1111.43 35.11 1110.61 35.11C1109 35.11 1108.2 36.496 1108.2 39.268C1108.2 41.8347 1109 43.118 1110.61 43.118ZM1115.96 45.386C1117.3 43.3887 1117.97 41.1533 1117.97 38.68C1117.97 37.504 1117.81 36.3513 1117.47 35.222C1117.14 34.0927 1116.64 33.0193 1115.96 32.002H1117.13C1117.86 32.9633 1118.41 34.032 1118.77 35.208C1119.14 36.3747 1119.33 37.532 1119.33 38.68C1119.33 39.8373 1119.14 41.004 1118.77 42.18C1118.41 43.356 1117.86 44.4247 1117.13 45.386H1115.96ZM1129.54 43.048V44H1124.92V43.048H1126.63V35.768C1126.4 35.9453 1126.15 36.0993 1125.88 36.23C1125.61 36.3513 1125.36 36.412 1125.13 36.412C1124.93 36.412 1124.77 36.356 1124.64 36.244C1124.52 36.132 1124.46 35.978 1124.46 35.782C1124.46 35.642 1124.49 35.5253 1124.53 35.432C1124.92 35.3947 1125.36 35.2687 1125.83 35.054C1126.31 34.8393 1126.73 34.5547 1127.09 34.2H1127.91V43.048H1129.54ZM1135.97 43.048V44H1131.35V43.048H1133.06V35.768C1132.82 35.9453 1132.57 36.0993 1132.3 36.23C1132.03 36.3513 1131.78 36.412 1131.56 36.412C1131.35 36.412 1131.19 36.356 1131.07 36.244C1130.95 36.132 1130.89 35.978 1130.89 35.782C1130.89 35.642 1130.91 35.5253 1130.96 35.432C1131.35 35.3947 1131.78 35.2687 1132.26 35.054C1132.74 34.8393 1133.16 34.5547 1133.52 34.2H1134.33V43.048H1135.97ZM1143.71 37.168C1143.71 38.1013 1143.36 39.03 1142.65 39.954C1141.94 40.8687 1140.89 41.8813 1139.5 42.992H1143.6V44H1137.59V43.314C1138.81 42.3247 1139.75 41.4847 1140.44 40.794C1141.13 40.1033 1141.63 39.464 1141.95 38.876C1142.27 38.2787 1142.44 37.672 1142.44 37.056C1142.44 36.468 1142.28 36.0107 1141.98 35.684C1141.67 35.3573 1141.23 35.194 1140.66 35.194C1139.46 35.194 1138.78 35.922 1138.64 37.378C1138.26 37.378 1137.99 37.3173 1137.83 37.196C1137.68 37.0747 1137.61 36.874 1137.61 36.594C1137.61 36.174 1137.73 35.782 1137.97 35.418C1138.22 35.0447 1138.58 34.7507 1139.04 34.536C1139.5 34.312 1140.04 34.2 1140.66 34.2C1141.6 34.2 1142.34 34.452 1142.89 34.956C1143.44 35.4507 1143.71 36.188 1143.71 37.168ZM1153.22 38.946C1153.7 39.0673 1154.11 39.3053 1154.43 39.66C1154.76 40.0053 1154.92 40.5187 1154.92 41.2C1154.92 42.1053 1154.61 42.8193 1153.99 43.342C1153.37 43.8647 1152.54 44.126 1151.49 44.126C1150.86 44.126 1150.3 44.0513 1149.81 43.902C1149.34 43.7527 1148.97 43.5567 1148.71 43.314C1148.45 43.062 1148.32 42.7913 1148.32 42.502C1148.32 42.278 1148.39 42.1007 1148.54 41.97C1148.69 41.83 1148.86 41.76 1149.06 41.76C1149.33 42.1987 1149.65 42.5347 1150.01 42.768C1150.38 43.0013 1150.89 43.118 1151.54 43.118C1152.21 43.118 1152.73 42.95 1153.09 42.614C1153.45 42.2687 1153.64 41.802 1153.64 41.214C1153.64 40.626 1153.47 40.1873 1153.15 39.898C1152.82 39.5993 1152.38 39.45 1151.83 39.45L1151.38 39.464C1151.18 39.4827 1151.01 39.492 1150.89 39.492C1150.73 39.492 1150.59 39.408 1150.47 39.24C1150.36 39.0627 1150.3 38.8947 1150.3 38.736C1150.3 38.5867 1150.36 38.512 1150.46 38.512H1151.61C1152.18 38.512 1152.61 38.3627 1152.91 38.064C1153.22 37.7653 1153.37 37.3127 1153.37 36.706C1153.37 36.23 1153.22 35.8613 1152.91 35.6C1152.6 35.3293 1152.15 35.194 1151.55 35.194C1151.03 35.194 1150.6 35.3247 1150.28 35.586C1149.96 35.838 1149.68 36.2113 1149.44 36.706C1149.17 36.706 1148.95 36.6453 1148.79 36.524C1148.64 36.3933 1148.57 36.216 1148.57 35.992C1148.57 35.74 1148.69 35.474 1148.95 35.194C1149.2 34.914 1149.55 34.6807 1150.01 34.494C1150.48 34.298 1151 34.2 1151.58 34.2C1152.52 34.2 1153.27 34.4193 1153.82 34.858C1154.38 35.2873 1154.66 35.9033 1154.66 36.706C1154.66 37.2847 1154.52 37.7607 1154.25 38.134C1153.98 38.5073 1153.64 38.778 1153.22 38.946ZM1159.88 37.714C1160.47 37.714 1160.99 37.84 1161.46 38.092C1161.94 38.344 1162.3 38.7173 1162.57 39.212C1162.84 39.6973 1162.97 40.2853 1162.97 40.976C1162.97 41.592 1162.84 42.138 1162.57 42.614C1162.3 43.0807 1161.93 43.4447 1161.43 43.706C1160.95 43.9673 1160.38 44.098 1159.74 44.098C1159.01 44.098 1158.38 43.9253 1157.86 43.58C1157.35 43.2253 1156.96 42.7493 1156.69 42.152C1156.42 41.5453 1156.29 40.864 1156.29 40.108C1156.29 39.0253 1156.49 38.0267 1156.9 37.112C1157.31 36.1973 1157.86 35.474 1158.55 34.942C1159.25 34.4007 1160 34.13 1160.82 34.13C1161.13 34.13 1161.36 34.214 1161.49 34.382C1161.63 34.5407 1161.7 34.7787 1161.7 35.096C1160.69 35.096 1159.84 35.3993 1159.16 36.006C1158.48 36.6033 1158.02 37.4153 1157.76 38.442C1158.04 38.2273 1158.37 38.0547 1158.74 37.924C1159.12 37.784 1159.49 37.714 1159.88 37.714ZM1159.77 43.09C1160.38 43.09 1160.85 42.894 1161.18 42.502C1161.52 42.1007 1161.68 41.578 1161.68 40.934C1161.68 40.178 1161.51 39.6227 1161.17 39.268C1160.83 38.904 1160.35 38.722 1159.74 38.722C1159.33 38.722 1158.93 38.8107 1158.56 38.988C1158.2 39.156 1157.88 39.3847 1157.6 39.674C1157.59 39.7673 1157.58 39.912 1157.58 40.108C1157.58 41.004 1157.76 41.7273 1158.11 42.278C1158.47 42.8193 1159.02 43.09 1159.77 43.09ZM1167.82 37.56C1168.43 37.56 1168.98 37.6907 1169.46 37.952C1169.93 38.204 1170.3 38.5727 1170.56 39.058C1170.83 39.534 1170.97 40.0987 1170.97 40.752C1170.97 41.788 1170.67 42.6093 1170.07 43.216C1169.47 43.8227 1168.67 44.126 1167.66 44.126C1167.06 44.126 1166.53 44.042 1166.08 43.874C1165.63 43.6967 1165.29 43.4727 1165.05 43.202C1164.81 42.9313 1164.7 42.656 1164.7 42.376C1164.7 41.928 1164.93 41.6713 1165.41 41.606C1165.8 42.6233 1166.54 43.132 1167.62 43.132C1168.29 43.132 1168.8 42.922 1169.15 42.502C1169.5 42.0727 1169.68 41.508 1169.68 40.808C1169.68 40.052 1169.5 39.492 1169.15 39.128C1168.8 38.764 1168.31 38.582 1167.66 38.582C1167.23 38.582 1166.87 38.666 1166.56 38.834C1166.25 39.002 1165.97 39.2633 1165.72 39.618L1164.81 39.464L1165.14 34.2H1170.3V35.194H1166.25L1166.05 38.078C1166.53 37.7327 1167.12 37.56 1167.82 37.56ZM1179.7 41.76H1175.44V41.116C1176.34 39.8747 1177.01 38.7267 1177.46 37.672C1177.9 36.6173 1178.17 35.46 1178.27 34.2C1178.35 34.1813 1178.47 34.172 1178.63 34.172C1179.24 34.172 1179.54 34.494 1179.54 35.138C1179.54 35.9313 1179.26 36.86 1178.7 37.924C1178.15 38.988 1177.53 39.9307 1176.84 40.752H1179.7V38.05H1180.97V40.752H1182.2V41.76H1180.97V44H1179.7V41.76ZM1187.91 38.96C1188.6 39.2493 1189.08 39.604 1189.35 40.024C1189.62 40.444 1189.75 40.948 1189.75 41.536C1189.75 42.376 1189.46 43.02 1188.86 43.468C1188.27 43.9067 1187.46 44.126 1186.42 44.126C1185.4 44.126 1184.58 43.9067 1183.99 43.468C1183.4 43.02 1183.1 42.376 1183.1 41.536C1183.1 40.948 1183.24 40.444 1183.52 40.024C1183.8 39.5947 1184.29 39.24 1184.97 38.96C1184.43 38.68 1184.02 38.3627 1183.75 38.008C1183.49 37.644 1183.36 37.2007 1183.36 36.678C1183.36 35.9033 1183.64 35.2873 1184.2 34.83C1184.76 34.3633 1185.5 34.13 1186.42 34.13C1187.36 34.13 1188.1 34.3633 1188.65 34.83C1189.2 35.2873 1189.47 35.9033 1189.47 36.678C1189.47 37.21 1189.34 37.658 1189.08 38.022C1188.83 38.386 1188.44 38.6987 1187.91 38.96ZM1186.42 35.11C1185.88 35.11 1185.45 35.25 1185.12 35.53C1184.79 35.8007 1184.63 36.1693 1184.63 36.636C1184.63 37.056 1184.78 37.4247 1185.09 37.742C1185.41 38.05 1185.85 38.302 1186.42 38.498C1187.09 38.2833 1187.56 38.0313 1187.81 37.742C1188.07 37.4527 1188.2 37.084 1188.2 36.636C1188.2 36.1693 1188.04 35.8007 1187.71 35.53C1187.39 35.25 1186.96 35.11 1186.42 35.11ZM1186.42 43.132C1187.05 43.132 1187.54 42.992 1187.91 42.712C1188.28 42.4227 1188.47 42.0307 1188.47 41.536C1188.47 41.2187 1188.41 40.9527 1188.28 40.738C1188.17 40.514 1187.97 40.3087 1187.68 40.122C1187.39 39.9353 1186.97 39.7393 1186.42 39.534C1185.7 39.8047 1185.19 40.0893 1184.87 40.388C1184.55 40.6867 1184.39 41.0693 1184.39 41.536C1184.39 42.0307 1184.57 42.4227 1184.94 42.712C1185.3 42.992 1185.8 43.132 1186.42 43.132ZM1194.25 34.172C1195.42 34.172 1196.28 34.5313 1196.83 35.25C1197.38 35.9687 1197.66 36.9253 1197.66 38.12C1197.66 39.212 1197.45 40.2153 1197.03 41.13C1196.62 42.0353 1196.05 42.7587 1195.33 43.3C1194.61 43.832 1193.82 44.098 1192.95 44.098C1192.64 44.098 1192.41 44.0187 1192.27 43.86C1192.13 43.692 1192.06 43.4493 1192.06 43.132C1193.12 43.132 1194 42.8427 1194.7 42.264C1195.4 41.6853 1195.89 40.8967 1196.16 39.898C1195.89 40.0847 1195.58 40.2387 1195.22 40.36C1194.88 40.4813 1194.52 40.542 1194.14 40.542C1193.2 40.542 1192.43 40.2667 1191.85 39.716C1191.27 39.1653 1190.98 38.3907 1190.98 37.392C1190.98 36.7667 1191.12 36.2113 1191.41 35.726C1191.7 35.2313 1192.09 34.8487 1192.59 34.578C1193.08 34.3073 1193.64 34.172 1194.25 34.172ZM1194.28 39.534C1195.09 39.534 1195.78 39.2447 1196.35 38.666C1196.36 38.5447 1196.37 38.3627 1196.37 38.12C1196.37 37.196 1196.21 36.4773 1195.89 35.964C1195.58 35.4507 1195.02 35.194 1194.23 35.194C1193.6 35.194 1193.12 35.404 1192.77 35.824C1192.43 36.2347 1192.27 36.776 1192.27 37.448C1192.27 38.148 1192.44 38.6707 1192.78 39.016C1193.14 39.3613 1193.64 39.534 1194.28 39.534Z" fill="white"/>
<circle cx="1046.63" cy="31.5" r="31" fill="#111C55" stroke="#273270"/>
<path d="M1039.1 22.1408C1038.97 22.1449 1038.84 22.1743 1038.72 22.2272C1038.59 22.28 1038.48 22.3554 1038.39 22.4487C1038.3 22.542 1038.23 22.6514 1038.19 22.7704C1038.14 22.8894 1038.12 23.0156 1038.13 23.1416C1038.27 25.3015 1038.9 30.5716 1041.94 33.8583C1045.57 37.8181 1050.31 39.1824 1055.16 38.9808C1055.42 38.9662 1055.67 38.8596 1055.85 38.6826C1056.03 38.5055 1056.13 38.2712 1056.13 38.0268V34.5674C1056.13 34.2446 1056.01 33.9322 1055.79 33.6802C1055.58 33.4282 1055.28 33.2513 1054.94 33.1779L1052.51 32.6739C1052.21 32.6138 1051.9 32.6397 1051.61 32.7481C1051.33 32.8566 1051.08 33.0427 1050.91 33.2823L1050.37 34.0454C1050.33 34.1153 1050.25 34.1668 1050.17 34.1911C1050.08 34.2154 1049.99 34.211 1049.91 34.1786C1048.67 33.6783 1043.74 31.5184 1043.2 27.8753C1043.19 27.805 1043.2 27.7333 1043.23 27.6692C1043.26 27.6051 1043.32 27.5516 1043.38 27.5154L1044.36 26.9574C1044.63 26.802 1044.84 26.5732 1044.96 26.3022C1045.08 26.0311 1045.12 25.7308 1045.05 25.4419L1044.52 23.1236C1044.44 22.7988 1044.25 22.5093 1043.96 22.3045C1043.68 22.0998 1043.34 21.9923 1042.98 22.0004L1039.1 22.1408Z" stroke="#F6B426"/>
</svg>
