<svg width="195" height="61" viewBox="0 0 195 61" fill="none" xmlns="http://www.w3.org/2000/svg">
<path d="M0.414062 0.914795H194.414V60.9148H0.414062V0.914795Z" fill="#091242"/>
<mask id="mask0_1_4387" style="mask-type:alpha" maskUnits="userSpaceOnUse" x="0" y="0" width="195" height="61">
<path d="M0.414062 0.914795H194.414V60.9148H0.414062V0.914795Z" fill="#FFB629"/>
</mask>
<g mask="url(#mask0_1_4387)">
<circle cx="185.414" cy="62.9148" r="26" fill="#1F2A69"/>
</g>
<path d="M66.8781 36.9148C66.8567 34.9841 66.7927 33.3415 66.6861 31.9868C66.5794 30.6215 66.4087 29.2828 66.1741 27.9708C65.7581 29.0695 65.4007 30.1041 65.1021 31.0748C64.8034 32.0455 64.4034 33.4748 63.9021 35.3628H62.3181C61.8807 33.6348 61.5074 32.2641 61.1981 31.2508C60.8994 30.2268 60.5314 29.1335 60.0941 27.9708C59.8701 29.2828 59.6994 30.6215 59.5821 31.9868C59.4754 33.3521 59.4007 34.9948 59.3581 36.9148H57.3581C57.4007 34.6535 57.5287 32.6375 57.7421 30.8668C57.9661 29.0855 58.3074 27.3681 58.7661 25.7148H61.0221C61.5874 27.0908 62.0087 28.2055 62.2861 29.0588C62.5741 29.9015 62.8461 30.8508 63.1021 31.9068C63.3687 30.8721 63.6461 29.9388 63.9341 29.1068C64.2327 28.2641 64.6701 27.1335 65.2461 25.7148H67.5021C67.9821 27.3788 68.3341 29.1015 68.5581 30.8828C68.7821 32.6641 68.9047 34.6748 68.9261 36.9148H66.8781ZM74.3476 37.0748C73.0676 37.0748 72.0862 36.6801 71.4036 35.8908C70.7209 35.1015 70.3796 33.9708 70.3796 32.4988C70.3796 31.0268 70.7209 29.9015 71.4036 29.1228C72.0862 28.3441 73.0676 27.9548 74.3476 27.9548C75.6276 27.9548 76.6036 28.3441 77.2756 29.1228C77.9582 29.9015 78.2996 31.0268 78.2996 32.4988C78.2996 33.9815 77.9582 35.1175 77.2756 35.9068C76.5929 36.6855 75.6169 37.0748 74.3476 37.0748ZM74.3476 35.7468C75.0409 35.7468 75.5422 35.4908 75.8516 34.9788C76.1716 34.4561 76.3316 33.6295 76.3316 32.4988C76.3316 31.3788 76.1716 30.5628 75.8516 30.0508C75.5422 29.5388 75.0409 29.2828 74.3476 29.2828C73.6542 29.2828 73.1476 29.5388 72.8276 30.0508C72.5182 30.5521 72.3636 31.3681 72.3636 32.4988C72.3636 33.6401 72.5182 34.4668 72.8276 34.9788C73.1476 35.4908 73.6542 35.7468 74.3476 35.7468ZM84.0363 28.0028C84.5056 28.0028 84.847 28.0988 85.0603 28.2908C85.2843 28.4828 85.3963 28.7761 85.3963 29.1708C85.3963 29.3201 85.375 29.4695 85.3323 29.6188C85.2896 29.7575 85.231 29.8695 85.1563 29.9548C85.039 29.8801 84.895 29.8268 84.7243 29.7948C84.5643 29.7628 84.3456 29.7468 84.0683 29.7468C83.375 29.7468 82.8416 29.9868 82.4683 30.4668C82.095 30.9361 81.9083 31.6135 81.9083 32.4988V36.9148H79.9723V28.1148H81.9083V29.4268C82.1323 28.9788 82.431 28.6321 82.8043 28.3868C83.1776 28.1308 83.5883 28.0028 84.0363 28.0028ZM94.2884 31.9228C94.2884 32.1041 94.2671 32.4081 94.2244 32.8348H88.3364C88.3898 33.7521 88.6031 34.4615 88.9764 34.9628C89.3498 35.4641 89.8564 35.7148 90.4964 35.7148C90.9338 35.7148 91.2911 35.6295 91.5684 35.4588C91.8564 35.2775 92.1818 34.9308 92.5444 34.4188C92.6084 34.3228 92.7204 34.2748 92.8804 34.2748C93.1791 34.2748 93.5898 34.4615 94.1124 34.8348C93.8138 35.5601 93.3498 36.1148 92.7204 36.4988C92.1018 36.8828 91.3604 37.0748 90.4964 37.0748C89.2058 37.0748 88.1871 36.6695 87.4404 35.8588C86.7044 35.0375 86.3364 33.9175 86.3364 32.4988C86.3364 31.0908 86.7098 29.9815 87.4564 29.1708C88.2031 28.3601 89.2271 27.9548 90.5284 27.9548C91.7231 27.9548 92.6458 28.3015 93.2964 28.9948C93.9578 29.6881 94.2884 30.6641 94.2884 31.9228ZM92.3204 31.6508C92.3204 30.0615 91.7071 29.2668 90.4804 29.2668C89.8724 29.2668 89.3871 29.4695 89.0244 29.8748C88.6724 30.2695 88.4538 30.8615 88.3684 31.6508H92.3204ZM112.833 25.7148C112.588 27.8161 112.268 29.7201 111.873 31.4268C111.479 33.1228 110.935 34.9521 110.241 36.9148H108.081C107.495 35.0695 107.063 33.6401 106.785 32.6268C106.508 31.6135 106.273 30.5735 106.081 29.5068C105.868 30.6908 105.617 31.8161 105.329 32.8828C105.041 33.9495 104.631 35.2935 104.097 36.9148H101.937C101.223 34.9948 100.652 33.1815 100.225 31.4748C99.8093 29.7681 99.4626 27.8481 99.1853 25.7148H101.185C101.399 27.6135 101.628 29.1868 101.873 30.4348C102.129 31.6721 102.508 33.1068 103.009 34.7388C103.447 33.4161 103.809 32.1735 104.097 31.0108C104.396 29.8481 104.796 28.0828 105.297 25.7148H106.817C107.457 28.4455 107.911 30.3441 108.177 31.4108C108.455 32.4668 108.78 33.5708 109.153 34.7228C109.633 33.1335 109.991 31.7201 110.225 30.4828C110.46 29.2455 110.679 27.6561 110.881 25.7148H112.833ZM117.566 37.0748C116.286 37.0748 115.305 36.6801 114.622 35.8908C113.94 35.1015 113.598 33.9708 113.598 32.4988C113.598 31.0268 113.94 29.9015 114.622 29.1228C115.305 28.3441 116.286 27.9548 117.566 27.9548C118.846 27.9548 119.822 28.3441 120.494 29.1228C121.177 29.9015 121.518 31.0268 121.518 32.4988C121.518 33.9815 121.177 35.1175 120.494 35.9068C119.812 36.6855 118.836 37.0748 117.566 37.0748ZM117.566 35.7468C118.26 35.7468 118.761 35.4908 119.07 34.9788C119.39 34.4561 119.55 33.6295 119.55 32.4988C119.55 31.3788 119.39 30.5628 119.07 30.0508C118.761 29.5388 118.26 29.2828 117.566 29.2828C116.873 29.2828 116.366 29.5388 116.046 30.0508C115.737 30.5521 115.582 31.3681 115.582 32.4988C115.582 33.6401 115.737 34.4668 116.046 34.9788C116.366 35.4908 116.873 35.7468 117.566 35.7468ZM127.255 28.0028C127.724 28.0028 128.066 28.0988 128.279 28.2908C128.503 28.4828 128.615 28.7761 128.615 29.1708C128.615 29.3201 128.594 29.4695 128.551 29.6188C128.508 29.7575 128.45 29.8695 128.375 29.9548C128.258 29.8801 128.114 29.8268 127.943 29.7948C127.783 29.7628 127.564 29.7468 127.287 29.7468C126.594 29.7468 126.06 29.9868 125.687 30.4668C125.314 30.9361 125.127 31.6135 125.127 32.4988V36.9148H123.191V28.1148H125.127V29.4268C125.351 28.9788 125.65 28.6321 126.023 28.3868C126.396 28.1308 126.807 28.0028 127.255 28.0028ZM138.179 36.9148C138.062 36.9148 137.731 36.9308 137.187 36.9628C136.91 36.9841 136.739 36.9948 136.675 36.9948C136.451 36.9948 136.27 36.9521 136.131 36.8668C135.993 36.7815 135.87 36.6535 135.763 36.4828L134.243 33.8588C134.083 33.5815 133.881 33.3841 133.635 33.2668C133.39 33.1388 133.038 33.0908 132.579 33.1228L132.051 33.1548V36.9148H130.115V24.2588H132.051V31.7308L132.499 31.7148C132.841 31.6935 133.097 31.6295 133.267 31.5228C133.449 31.4055 133.625 31.1975 133.795 30.8988L135.443 28.1148H137.635L135.523 31.3788C135.385 31.6135 135.257 31.8001 135.139 31.9388C135.033 32.0668 134.889 32.1788 134.707 32.2748C134.995 32.3495 135.23 32.4615 135.411 32.6108C135.603 32.7601 135.774 32.9575 135.923 33.2028L138.179 36.9148Z" fill="white"/>
</svg>
